<?xml version="1.0" encoding="utf-8"?>
<!-- Generator: Adobe Illustrator 19.2.0, SVG Export Plug-In . SVG Version: 6.00 Build 0)  -->
<!DOCTYPE svg PUBLIC "-//W3C//DTD SVG 1.1//EN" "http://www.w3.org/Graphics/SVG/1.1/DTD/svg11.dtd">
<svg version="1.1" id="Layer_1" xmlns="http://www.w3.org/2000/svg" xmlns:xlink="http://www.w3.org/1999/xlink" x="0px" y="0px"
	 width="1200px" height="900px" viewBox="0 0 1200 900" style="enable-background:new 0 0 1200 900;" xml:space="preserve">
<style type="text/css">
	.st0{fill:#F7F4F2;}
	.st1{fill:#F7F4F2;stroke:#EAE5E1;stroke-width:5;stroke-miterlimit:10;}
	.st2{fill:#EAE5E1;}
	.st3{opacity:0.3;fill:#493A60;}
	.st4{fill:#E2F0F7;stroke:#493A60;stroke-width:5;stroke-miterlimit:10;}
	.st5{fill:none;stroke:#493A60;stroke-width:5;stroke-linecap:round;stroke-miterlimit:10;}
	.st6{opacity:0.3;}
	.st7{fill:#493A60;}
	.st8{fill:#FFC522;}
	.st9{fill:#FFC522;stroke:#493A60;stroke-width:5;stroke-miterlimit:10;}
	.st10{fill:#996633;stroke:#493A60;stroke-width:5;stroke-miterlimit:10;}
	.st11{fill:#F7F4F2;stroke:#EAE5E1;stroke-width:5;stroke-linecap:round;stroke-miterlimit:10;}
	.st12{fill:#93C94C;stroke:#493A60;stroke-width:5;stroke-miterlimit:10;}
	.st13{fill:#E2F0F7;stroke:#493A60;stroke-width:5;stroke-linecap:round;stroke-miterlimit:10;}
	.st14{fill:#E2F0F7;}
	.st15{fill:none;stroke:#493A60;stroke-width:5;stroke-linecap:round;stroke-linejoin:round;stroke-miterlimit:10;}
	.st16{fill:#E52E44;stroke:#493A60;stroke-width:5;stroke-miterlimit:10;}
	.st17{fill:#4B9DEF;stroke:#493A60;stroke-width:5;stroke-miterlimit:10;}
	.st18{opacity:0.3;fill:#F7F4F2;stroke:#EAE5E1;stroke-width:5;stroke-miterlimit:10;}
	.st19{fill:#E52E44;stroke:#493A60;stroke-width:5;stroke-linecap:round;stroke-miterlimit:10;}
	.st20{fill:#F7F4F2;stroke:#EAE5E1;stroke-width:5;stroke-linecap:round;stroke-linejoin:round;stroke-miterlimit:10;}
	.st21{opacity:0.3;fill:#F7F4F2;stroke:#EAE5E1;stroke-width:5;stroke-linecap:round;stroke-linejoin:round;stroke-miterlimit:10;}
	.st22{fill:none;stroke:#493A60;stroke-width:5;stroke-miterlimit:10;}
	.st23{fill:none;stroke:#EAE5E1;stroke-width:5;stroke-linecap:round;stroke-linejoin:round;stroke-miterlimit:10;}
	.st24{fill:#E2F0F7;stroke:#493A60;stroke-width:5;stroke-linecap:round;stroke-linejoin:round;stroke-miterlimit:10;}
	.st25{fill:#FFC522;stroke:#493A60;stroke-width:5;stroke-linejoin:round;stroke-miterlimit:10;}
	.st26{fill:#E2F0F7;stroke:#493A60;stroke-width:5;stroke-linejoin:round;stroke-miterlimit:10;}
	.st27{fill:#E52E44;stroke:#493A60;stroke-width:5;stroke-linecap:round;stroke-linejoin:round;stroke-miterlimit:10;}
	.st28{fill:#93C94C;stroke:#493A60;stroke-width:5;stroke-linejoin:round;stroke-miterlimit:10;}
</style>
<rect class="st0" width="1200" height="899.97656"/>
<g>
	<g>
		<path class="st1" d="M190.53749,245.41469h-62.79813c-1.10457,0-2-0.89543-2-2v-74.80461c0-1.10457,0.89543-2,2-2h62.79813
			c1.10457,0,2,0.89543,2,2v74.80461C192.53749,244.51926,191.64206,245.41469,190.53749,245.41469z"/>
		<line class="st1" x1="141.03432" y1="188.25134" x2="177.24252" y2="188.25134"/>
		<line class="st1" x1="141.03432" y1="223.77341" x2="177.24252" y2="223.77341"/>
		<line class="st1" x1="141.03432" y1="206.01237" x2="177.24252" y2="206.01237"/>
		<g>
			<g>
				<path class="st0" d="M196.29297,223.96533v2.5c-8.16016,0.00049-15.83301-3.17822-21.60449-8.94971
					c-5.77148-5.77197-8.9502-13.44629-8.9502-21.60889c0-8.16113,3.17871-15.83496,8.95117-21.60742
					c5.77051-5.771,13.44336-8.94922,21.60449-8.94922c16.85156,0.00049,30.56055,13.7085,30.56055,30.55762
					c0,8.16309-3.17871,15.83691-8.9502,21.60791s-13.44434,8.94971-21.60547,8.94971L196.29297,223.96533z M196.2959,176.84912
					c-5.08984,0-9.87598,1.98242-13.47559,5.58203c-3.59961,3.6001-5.58203,8.38623-5.58203,13.47607
					c0,5.09131,1.98242,9.87744,5.58203,13.47656c3.59863,3.59961,8.38281,5.58154,13.47168,5.58154
					c5.09473,0,9.88184-1.98242,13.48145-5.58203c3.59863-3.59863,5.58105-8.38477,5.58105-13.47559
					C215.35449,185.39941,206.80469,176.84961,196.2959,176.84912L196.2959,176.84912z"/>
			</g>
			<g>
				<path class="st2" d="M196.29626,167.84996c15.47131,0.00046,28.05786,12.58702,28.05786,28.05788
					c0.00049,7.4944-2.91785,14.54041-8.21704,19.83949c-5.29993,5.29999-12.34595,8.21841-19.84033,8.21794
					c-0.00098,0-0.00256,0-0.00342,0c-7.4939,0-14.53809-2.91814-19.83691-8.21704
					c-5.29956-5.29953-8.21851-12.34599-8.21802-19.84128c0-7.49396,2.91846-14.53995,8.21838-19.83995
					C181.75586,170.76791,188.80188,167.84952,196.29626,167.84996 M196.29285,217.46552c0.00134,0,0.00195,0,0.00342,0
					c5.7583,0.00046,11.17273-2.24243,15.24463-6.31438c4.07104-4.07104,6.31396-9.48549,6.31396-15.2433
					c0-11.88725-9.6709-21.55812-21.55859-21.55856c-5.75781,0-11.17224,2.24289-15.24329,6.31395
					c-4.0719,4.07191-6.31482,9.48636-6.31482,15.24417c0.00049,5.75826,2.24243,11.1727,6.31445,15.24464
					C185.12354,215.22298,190.53577,217.46552,196.29285,217.46552 M196.29651,162.84996c-0.00012,0-0.00012,0-0.00012,0
					c-8.82996-0.00052-17.13135,3.43777-23.37512,9.6815c-6.24414,6.24417-9.68286,14.54575-9.68286,23.37549
					c-0.00061,8.83026,3.43811,17.13243,9.6825,23.37683c6.24304,6.24319,14.54358,9.68149,23.37244,9.68149
					c8.83313,0.00055,17.13501-3.43808,23.37927-9.68242c6.24377-6.24364,9.68213-14.54518,9.68152-23.37534
					c0-18.22733-14.82959-33.05702-33.05774-33.05756H196.29651L196.29651,162.84996z M196.29285,212.46552
					c-4.42102,0-8.57776-1.72208-11.70471-4.849c-3.1272-3.12714-4.84961-7.28566-4.84998-11.70953
					c0-4.42221,1.72253-8.58043,4.85034-11.70825c3.1272-3.12721,7.28516-4.84946,11.70776-4.84946
					c9.13037,0.00034,16.55859,7.42848,16.55859,16.55856c0,4.42262-1.72229,8.58052-4.84949,11.70776
					c-3.12781,3.12788-7.28613,4.85028-11.70874,4.84991H196.29285L196.29285,212.46552z"/>
			</g>
		</g>
		<line class="st1" x1="216.13715" y1="215.74733" x2="224.67519" y2="224.28539"/>
		<path class="st1" d="M227.88809,221.07248l-6.42581,6.4258c-0.78105,0.78105-0.78105,2.04738,0,2.82843l17.27896,17.27896
			c0.78105,0.78105,2.04738,0.78105,2.82843,0l6.4258-6.42581c0.78105-0.78104,0.78105-2.04738,0-2.82841l-17.27895-17.27896
			C229.93547,220.29143,228.66914,220.29143,227.88809,221.07248z"/>
	</g>
	<g>
		<path class="st3" d="M213.26793,255.61356h-47.38318c-1.10457,0-2-0.89542-2-2v-56.61893c0-1.10457,0.89543-2,2-2h47.38318
			c1.10457,0,2,0.89543,2,2v56.61893C215.26793,254.71814,214.3725,255.61356,213.26793,255.61356z"/>
		<path class="st4" d="M213.26793,245.61356h-47.38318c-1.10457,0-2-0.89542-2-2v-56.61893c0-1.10457,0.89543-2,2-2h47.38318
			c1.10457,0,2,0.89543,2,2v56.61893C215.26793,244.71814,214.3725,245.61356,213.26793,245.61356z"/>
		<line class="st5" x1="175.6501" y1="201.64177" x2="203.50256" y2="201.64177"/>
		<line class="st5" x1="175.6501" y1="228.96643" x2="203.50256" y2="228.96643"/>
		<line class="st5" x1="175.6501" y1="215.30409" x2="203.50256" y2="215.30409"/>
		<g class="st6">
			<path class="st7" d="M218.15941,195.94838c-5.76501-0.00037-11.18506,2.24457-15.26123,6.3208
				c-4.0769,4.0769-6.32178,9.49689-6.32178,15.26147c-0.00049,5.76562,2.24487,11.18597,6.32141,15.26251
				c4.07654,4.0766,9.49658,6.32153,15.26184,6.32086c5.76489,0.00031,11.18494-2.24463,15.26184-6.32153
				c4.07629-4.07623,6.32117-9.49622,6.3208-15.26111C239.74229,205.63069,230.06029,195.94875,218.15941,195.94838z
				 M229.88597,229.25697c-3.13232,3.13226-7.29724,4.85754-11.72656,4.85724c-4.42993,0.00067-8.59375-1.7243-11.72607-4.85657
				s-4.85693-7.29718-4.85718-11.72662c0-4.42908,1.72534-8.59406,4.85754-11.72632
				c3.13159-3.13159,7.29651-4.85687,11.72571-4.85687c9.14429,0.00037,16.5835,7.43945,16.5835,16.58356
				C234.7429,221.96046,233.01756,226.12538,229.88597,229.25697z"/>
			<path class="st7" d="M257.60156,249.8539l-12.63881-12.63879c-0.78113-0.78101-2.04736-0.78101-2.82849,0l-4.29016,4.29022
				c-0.78101,0.78107-0.78101,2.04742,0,2.82843l12.63879,12.63881c0.78101,0.78107,2.04736,0.78107,2.82837,0l4.2903-4.29024
				C258.38257,251.90132,258.38257,250.63496,257.60156,249.8539z"/>
		</g>
		<g>
			<path class="st8" d="M218.15723,231.61426c-6.43066,0-12.47852-2.50488-17.02734-7.05273
				c-4.54883-4.54932-7.05371-10.59766-7.05371-17.03076c0-6.43262,2.50488-12.48047,7.05469-17.0293
				c4.54785-4.54834,10.5957-7.05322,17.02832-7.05322c13.2793,0.00049,24.08301,10.8042,24.08301,24.08301
				c0,6.43359-2.50488,12.48096-7.05273,17.02881c-4.54883,4.54883-10.59668,7.0542-17.03027,7.0542H218.15723z
				 M218.15918,193.44775c-3.76074,0-7.29785,1.46484-9.95801,4.125s-4.125,6.19727-4.125,9.9585
				c0,3.76221,1.46484,7.29883,4.125,9.9585c2.65918,2.65967,6.19531,4.12451,9.95605,4.12451v2.5l0.00195-2.5
				c3.7627,0,7.29883-1.46484,9.95898-4.125s4.125-6.19629,4.125-9.95801
				C232.24316,199.76611,225.9248,193.44824,218.15918,193.44775z"/>
			<path class="st7" d="M218.1593,185.94839c11.901,0.00037,21.58301,9.68233,21.58301,21.58298
				c0.00037,5.76492-2.24463,11.18495-6.3208,15.26114c-4.0769,4.07692-9.49695,6.32185-15.26184,6.3215
				c-0.00073,0-0.00208,0-0.00269,0c-5.76453,0-11.18311-2.24472-15.25916-6.3208
				c-4.07654-4.07657-6.32178-9.49692-6.32153-15.26253c0-5.76457,2.245-11.18457,6.3219-15.26149
				C206.97437,188.19298,212.39441,185.94804,218.1593,185.94839 M218.15662,224.11421c0.0011,0,0.00159,0,0.00269,0
				c4.42944,0.00034,8.59436-1.72496,11.72668-4.85722c3.13159-3.13156,4.85681-7.29652,4.85681-11.72562
				c0-9.14404-7.43909-16.58316-16.5835-16.58351c-4.42908,0-8.59399,1.7253-11.72559,4.85687
				c-3.13232,3.13226-4.85754,7.2972-4.85754,11.72632c0.00037,4.42941,1.72498,8.59438,4.85718,11.72662
				C209.56494,222.38918,213.72803,224.11421,218.15662,224.11421 M218.15955,180.94839c-0.00012,0-0.00012,0-0.00012,0
				c-7.10046-0.00043-13.776,2.76443-18.79675,7.78529c-5.02112,5.02112-7.78638,11.6967-7.78638,18.797
				c-0.00037,7.1008,2.76477,13.77681,7.78601,18.79803c5.02039,5.02042,11.69507,7.78529,18.79468,7.78529
				c7.10291,0.00044,13.77881-2.76466,18.80005-7.78596c5.02087-5.02089,7.78577-11.69646,7.78528-18.79698
				c0-14.65715-11.92505-26.58223-26.58289-26.58267H218.15955L218.15955,180.94839z M218.15662,219.11421
				c-3.09253,0-6.00024-1.20468-8.18774-3.39211c-2.1875-2.18755-3.39246-5.09669-3.3927-8.19148
				c0-3.09348,1.20496-6.00232,3.39307-8.19031c2.18762-2.18767,5.09631-3.39246,8.19006-3.39246
				c6.38708,0.00024,11.5835,5.19658,11.5835,11.58351c0,3.09387-1.20471,6.0025-3.39233,8.19008
				c-2.18811,2.18808-5.09705,3.39299-8.1908,3.39276H218.15662L218.15662,219.11421z"/>
		</g>
		<line class="st9" x1="233.42151" y1="222.79253" x2="239.98923" y2="229.36026"/>
		<path class="st10" d="M242.13434,227.21515l-4.29022,4.29021c-0.78104,0.78105-0.78104,2.04738,0,2.82843l12.63879,12.63879
			c0.78105,0.78105,2.04738,0.78105,2.82843,0l4.29022-4.29021c0.78104-0.78105,0.78104-2.04738,0-2.82843l-12.63879-12.63879
			C244.18172,226.4341,242.91539,226.4341,242.13434,227.21515z"/>
	</g>
</g>
<g>
	<g>
		<path class="st1" d="M407.72195,244.58083H302.18375c-1.10455,0-2-0.89543-2-2v-66.1248c0-1.10457,0.89545-2,2-2h105.53821
			c1.10455,0,2,0.89543,2,2v66.1248C409.72195,243.68539,408.82651,244.58083,407.72195,244.58083z"/>
		<path class="st1" d="M407.72195,244.58083H302.18375c-1.10455,0-2-0.89543-2-2v-14.65791h109.53821v14.65791
			C409.72195,243.68539,408.82651,244.58083,407.72195,244.58083z"/>
		<circle class="st1" cx="354.95285" cy="209.51842" r="23.80105"/>
		<circle class="st1" cx="354.95285" cy="209.51842" r="12.97847"/>
		<line class="st1" x1="388.24496" y1="185.75697" x2="398.26093" y2="185.75697"/>
		<circle class="st1" cx="354.95285" cy="209.51842" r="4.37531"/>
		<path class="st1" d="M378.75391,174.45602h-47.60211l4.49988-11.39389c0.41663-0.93495,1.34439-1.53722,2.36795-1.53722h33.86646
			c1.02356,0,1.95132,0.60226,2.36795,1.53722L378.75391,174.45602z"/>
		<line class="st11" x1="305.04691" y1="165.02904" x2="315.61566" y2="165.02904"/>
	</g>
	<g>
		<path class="st3" d="M417.66809,254.58083H337.1626c-1.10458,0-2-0.89543-2-2V202.4816c0-1.10457,0.89542-2,2-2h80.50549
			c1.10458,0,2,0.89543,2,2v50.09923C419.66809,253.68539,418.77267,254.58083,417.66809,254.58083z"/>
		<path class="st4" d="M417.66809,244.58083H337.1626c-1.10458,0-2-0.89543-2-2V192.4816c0-1.10457,0.89542-2,2-2h80.50549
			c1.10458,0,2,0.89543,2,2v50.09923C419.66809,243.68539,418.77267,244.58083,417.66809,244.58083z"/>
		<path class="st10" d="M417.66809,244.58083H337.1626c-1.10458,0-2-0.89543-2-2v-8.8511h84.50549v8.8511
			C419.66809,243.68539,418.77267,244.58083,417.66809,244.58083z"/>
		<circle class="st12" cx="377.41534" cy="217.5312" r="18.36181"/>
		<circle class="st7" cx="377.41534" cy="217.5312" r="10.01251"/>
		<line class="st13" x1="403.09924" y1="199.19994" x2="410.82626" y2="199.19994"/>
		<circle class="st14" cx="377.41534" cy="217.5312" r="3.37542"/>
		<path class="st9" d="M395.77716,190.4816h-36.72363l3.47153-8.79007c0.32141-0.72127,1.03714-1.1859,1.82681-1.1859h26.12695
			c0.78964,0,1.5054,0.46463,1.82681,1.1859L395.77716,190.4816z"/>
		<line class="st13" x1="338.91437" y1="183.20895" x2="347.06787" y2="183.20895"/>
	</g>
</g>
<g>
	<g>
		<circle class="st1" cx="510.85263" cy="210.77534" r="43.19118"/>
		<circle class="st1" cx="510.85263" cy="210.77534" r="30.11995"/>
		<polyline class="st1" points="510.85263,192.83929 510.85263,210.77534 521.20624,210.77534 		"/>
		<path class="st1" d="M492.85178,156.50502c1.96951,3.41132-2.90091,5.14922-8.33517,8.2867s-9.37454,6.48643-11.34406,3.07512
			c-1.96954-3.4113,0.15198-9.91045,5.58624-13.04793C484.19308,151.68143,490.88226,153.09372,492.85178,156.50502z"/>
		<path class="st1" d="M528.85352,156.50502c-1.96954,3.41132,2.90088,5.14922,8.33514,8.2867s9.37457,6.48643,11.34406,3.07512
			c1.96954-3.4113-0.15198-9.91045-5.58624-13.04793S530.823,153.09372,528.85352,156.50502z"/>
	</g>
	<g>
		<circle class="st3" cx="531.1922" cy="227.5312" r="31.42432"/>
		<circle class="st9" cx="531.1922" cy="217.5312" r="31.42432"/>
		<circle class="st4" cx="531.1922" cy="217.5312" r="21.91417"/>
		<polyline class="st15" points="531.1922,204.4816 531.1922,217.5312 538.7251,217.5312 		"/>
		<path class="st16" d="M518.09546,178.04611c1.43292,2.48195-2.1106,3.74638-6.06439,6.0291
			c-3.95377,2.28271-6.82059,4.71928-8.25354,2.23734c-1.43292-2.48193,0.1106-7.21048,4.06436-9.49319
			C511.79568,174.53664,516.66248,175.56418,518.09546,178.04611z"/>
		<path class="st16" d="M544.28894,178.04611c-1.43292,2.48195,2.1106,3.74638,6.06439,6.0291s6.82056,4.71928,8.25354,2.23734
			c1.43292-2.48193-0.1106-7.21048-4.06439-9.49319C550.58875,174.53664,545.72192,175.56418,544.28894,178.04611z"/>
	</g>
</g>
<g>
	<g>
		<path class="st1" d="M721.46301,247.14455H617.89099c-1.10455,0-2-0.89542-2-2V164.819c0-1.10457,0.89545-2,2-2h103.57202
			c1.10455,0,2,0.89543,2,2v80.32555C723.46301,246.24913,722.56757,247.14455,721.46301,247.14455z"/>
		<rect x="631.0498" y="191.63066" class="st1" width="30.45434" height="41.00223"/>
		
			<rect x="677.84985" y="191.63066" transform="matrix(-1 -4.876822e-11 4.876822e-11 -1 1386.15405 402.46243)" class="st1" width="30.45434" height="19.20111"/>
		<path class="st1" d="M721.46301,162.819H617.89099c-1.10455,0-2,0.89543-2,2v10.92816h107.57202V164.819
			C723.46301,163.71443,722.56757,162.819,721.46301,162.819z"/>
		<line class="st1" x1="675.24982" y1="222.55142" x2="710.90417" y2="222.55142"/>
		<line class="st1" x1="675.24982" y1="232.63289" x2="710.90417" y2="232.63289"/>
	</g>
	<g>
		<path class="st3" d="M721.05084,256.41467h-78.74768c-1.10461,0-2-0.89542-2-1.99998v-60.86581c0-1.10457,0.89539-2,2-2h78.74768
			c1.10455,0,2,0.89543,2,2v60.86581C723.05084,255.51926,722.1554,256.41467,721.05084,256.41467z"/>
		<path class="st4" d="M721.05084,246.41469h-78.74768c-1.10461,0-2-0.89543-2-2v-60.86581c0-1.10457,0.89539-2,2-2h78.74768
			c1.10455,0,2,0.89543,2,2v60.86581C723.05084,245.51926,722.1554,246.41469,721.05084,246.41469z"/>
		<rect x="651.96381" y="203.71169" class="st16" width="23.42641" height="31.54017"/>
		
			<rect x="687.96381" y="203.71169" transform="matrix(-1 -4.876245e-11 4.876245e-11 -1 1399.354 422.19348)" class="st12" width="23.42641" height="14.77009"/>
		<path class="st10" d="M721.05084,181.54887h-78.74768c-1.10461,0-2,0.89543-2,2v7.94473h82.74768v-7.94473
			C723.05084,182.44431,722.1554,181.54887,721.05084,181.54887z"/>
		<line class="st4" x1="685.96381" y1="227.49689" x2="713.3902" y2="227.49689"/>
		<line class="st4" x1="685.96381" y1="235.25186" x2="713.3902" y2="235.25186"/>
	</g>
</g>
<g>
	<g>
		<path class="st1" d="M888.11249,171.28296h-79.48413c-1.10455,0-2,0.89543-2,2v13.6731c0,1.10457,0.89545,2,2,2h79.48413
			c1.10455,0,2-0.89543,2-2v-13.6731C890.11249,172.17839,889.21704,171.28296,888.11249,171.28296z"/>
		<path class="st1" d="M887.51245,246.70695h-101.8089c-1.43591,0-2.59998-1.16406-2.59998-2.60001v-73.25034
			c0-1.43594,1.16406-2.60001,2.59998-2.60001h25.52948c0.95239,0,1.82855,0.52072,2.28381,1.35727l5.04041,9.26271
			c0.48865,0.67816,1.27356,1.08002,2.10938,1.08002h66.84583c1.43597,0,2.60004,1.16406,2.60004,2.60001v61.55034
			C890.11249,245.54289,888.94843,246.70695,887.51245,246.70695z"/>
		<circle class="st1" cx="822.30798" cy="212.68178" r="15.53423"/>
		<circle class="st1" cx="858.94867" cy="212.68178" r="7.57667"/>
	</g>
	<g>
		<path class="st10" d="M887.76532,188.63654h-60.21857c-1.10461,0-2,0.89543-2,2v9.59468c0,1.10457,0.89539,2,2,2h60.21857
			c1.10455,0,2-0.89543,2-2v-9.59468C889.76532,189.53197,888.86987,188.63654,887.76532,188.63654z"/>
		<path class="st3" d="M887.76532,256.655h-78.31458c-1.10455,0-2-0.89545-2-2.00002v-56.34642c0-1.10457,0.89545-2,2-2h19.63806
			c0.7326,0,1.40662,0.40056,1.75677,1.04405l3.8772,7.12517c0.37592,0.52167,0.97968,0.83078,1.62262,0.83078h51.41992
			c1.10455,0,2,0.89543,2,2v47.34642C889.76532,255.75955,888.86987,256.655,887.76532,256.655z"/>
		<path class="st4" d="M887.76532,246.65498h-78.31458c-1.10455,0-2-0.89543-2-2v-56.34642c0-1.10457,0.89545-2,2-2h19.63806
			c0.7326,0,1.40662,0.40056,1.75677,1.04405l3.8772,7.12517c0.37592,0.52167,0.97968,0.83078,1.62262,0.83078h51.41992
			c1.10455,0,2,0.89543,2,2v47.34642C889.76532,245.75955,888.86987,246.65498,887.76532,246.65498z"/>
		<circle class="st9" cx="837.60803" cy="220.48178" r="11.94941"/>
		<circle class="st16" cx="865.79315" cy="220.48178" r="5.82821"/>
	</g>
</g>
<g>
	<g>
		<path class="st1" d="M1045.80042,233.33023h-76.14191c-1.10455,0-2-0.89543-2-2v-54.21628c0-1.10457,0.89545-2,2-2h76.14191
			c1.10461,0,2,0.89543,2,2v54.21628C1047.80042,232.4348,1046.90503,233.33023,1045.80042,233.33023z"/>
		<path class="st1" d="M1011.62946,163.87312v47.50197c0,1.43001-1.16998,2.60001-2.59998,2.60001h-45.07123l-9.34131,9.34143
			c-1.63794,1.63792-4.43854,0.47789-4.43854-1.83847v-7.50296h-9.29517c-1.42999,0-2.59998-1.17-2.59998-2.60001v-47.50197
			c0-1.44305,1.17017-2.60001,2.59998-2.60001h68.14624C1010.45929,161.27312,1011.62946,162.43007,1011.62946,163.87312z"/>
		<circle class="st1" cx="974.95636" cy="186.83241" r="5.84578"/>
		<circle class="st1" cx="959.82751" cy="186.83241" r="5.84578"/>
		<circle class="st1" cx="990.08521" cy="186.83241" r="5.84578"/>
		<path class="st1" d="M985.28326,197.8782v47.50197c0,1.42999,1.16998,2.59999,2.59998,2.59999h45.07123l9.34131,9.34143
			c1.63794,1.63794,4.43848,0.47791,4.43848-1.83847v-7.50296h9.29517c1.43005,0,2.6001-1.17,2.6001-2.59999V197.8782
			c0-1.44307-1.17029-2.60001-2.6001-2.60001h-68.14618C986.45343,195.2782,985.28326,196.43513,985.28326,197.8782z"/>
		<circle class="st1" cx="1021.95636" cy="220.83749" r="5.84578"/>
		<circle class="st1" cx="1037.08521" cy="220.83749" r="5.84578"/>
		<circle class="st1" cx="1006.82751" cy="220.83749" r="5.84578"/>
	</g>
	<g>
		<path class="st4" d="M1047.41333,238.87267h-57.64764c-1.10455,0-2-0.89543-2-2V196.0909c0-1.10457,0.89545-2,2-2h57.64764
			c1.10461,0,2,0.89543,2,2v40.78177C1049.41333,237.97723,1048.51794,238.87267,1047.41333,238.87267z"/>
		<path class="st3" d="M1021.58954,195.44411v36.53998c0,1.10001-0.90002,2-2,2h-34.67017l-7.18567,7.18571
			c-1.25989,1.25995-3.41418,0.36761-3.41418-1.4142v-5.77151h-7.15015c-1.10004,0-2-0.89999-2-2v-36.53998c0-1.11005,0.90015-2,2-2
			h52.42017C1020.68939,193.44411,1021.58954,194.33406,1021.58954,195.44411z"/>
		<path class="st17" d="M1021.58954,185.44411v36.53998c0,1.10001-0.90002,2-2,2h-34.67017l-7.18567,7.18571
			c-1.25989,1.25995-3.41418,0.36761-3.41418-1.4142v-5.77151h-7.15015c-1.10004,0-2-0.89999-2-2v-36.53998c0-1.11005,0.90015-2,2-2
			h52.42017C1020.68939,183.44411,1021.58954,184.33406,1021.58954,185.44411z"/>
		<circle class="st9" cx="993.37946" cy="203.1051" r="4.49675"/>
		<circle class="st9" cx="981.74188" cy="203.1051" r="4.49675"/>
		<circle class="st9" cx="1005.01697" cy="203.1051" r="4.49675"/>
		<path class="st3" d="M1001.32318,221.60185v36.53999c0,1.10001,0.90002,2,2,2h34.67023l7.18555,7.1857
			c1.26001,1.25995,3.41431,0.36761,3.41431-1.41418v-5.77151h7.15015c1.09998,0,2-0.89999,2-2v-36.53998c0-1.11005-0.90015-2-2-2
			l-52.42023-0.00002C1002.22333,219.60185,1001.32318,220.49181,1001.32318,221.60185z"/>
		<path class="st9" d="M1001.32318,211.60185v36.53998c0,1.10001,0.90002,2,2,2l34.67023,0.00002l7.18555,7.1857
			c1.26001,1.25995,3.41431,0.36761,3.41431-1.4142v-5.7715h7.15015c1.09998,0,2-0.90001,2-2v-36.53998c0-1.11005-0.90015-2-2-2
			l-52.42023-0.00002C1002.22333,209.60185,1001.32318,210.49181,1001.32318,211.60185z"/>
		<circle class="st12" cx="1029.53333" cy="229.26285" r="4.49675"/>
		<circle class="st12" cx="1041.1709" cy="229.26285" r="4.49675"/>
		<circle class="st12" cx="1017.89569" cy="229.26285" r="4.49675"/>
	</g>
</g>
<g>
	<g>
		<path class="st1" d="M403.19656,383.26221h-79.32755c-1.10458,0-2,0.89542-2,2v97.74954h83.32755v-97.74954
			C405.19656,384.15762,404.30115,383.26221,403.19656,383.26221z"/>
		<rect x="321.86902" y="462.65228" class="st18" width="83.32756" height="8.29622"/>
		<path class="st1" d="M416.42993,462.65228H310.63565c-1.10458,0-2-0.89542-2-2v-62.83093c0-1.10455,0.89542-2,2-2h105.79428
			c1.10455,0,2,0.89545,2,2v62.83093C418.42993,461.75687,417.53448,462.65228,416.42993,462.65228z"/>
		<circle class="st1" cx="325.91003" cy="415.07394" r="6.34234"/>
		<circle class="st1" cx="346.63867" cy="415.07394" r="6.34234"/>
		<circle class="st1" cx="367.36731" cy="415.07394" r="6.34234"/>
		<path class="st1" d="M416.42993,462.65228H310.63565c-1.10458,0-2-0.89542-2-2v-13.14505h109.79428v13.14505
			C418.42993,461.75687,417.53448,462.65228,416.42993,462.65228z"/>
	</g>
	<g>
		<path class="st3" d="M416.42993,478.35062h-80.45715c-1.10455,0-2-0.89542-2-2v-47.40839c0-1.10458,0.89545-2,2-2h80.45715
			c1.10455,0,2,0.89542,2,2v47.40839C418.42993,477.4552,417.53448,478.35062,416.42993,478.35062z"/>
		<path class="st4" d="M406.25043,406.28134h-60.09814c-1.10455,0-2,0.89542-2,2v74.73041h64.09814v-74.73041
			C408.25043,407.17676,407.35498,406.28134,406.25043,406.28134z"/>
		<rect x="344.15228" y="467.35062" class="st3" width="64.09812" height="6.38171"/>
		<path class="st17" d="M416.42993,467.35062h-80.45715c-1.10455,0-2-0.89542-2-2v-47.40839c0-1.10458,0.89545-2,2-2h80.45715
			c1.10455,0,2,0.89542,2,2v47.40839C418.42993,466.4552,417.53448,467.35062,416.42993,467.35062z"/>
		<circle class="st12" cx="347.26077" cy="430.75189" r="4.87872"/>
		<circle class="st16" cx="364.20587" cy="430.75189" r="4.87872"/>
		<circle class="st9" cx="381.15097" cy="430.75189" r="4.87872"/>
		<path class="st12" d="M416.42993,467.35062h-80.45715c-1.10455,0-2-0.89542-2-2v-9.65002h84.45715v9.65002
			C418.42993,466.4552,417.53448,467.35062,416.42993,467.35062z"/>
	</g>
</g>
<g>
	<g>
		<path class="st1" d="M562.57288,458.80334l-89.97897,6.17136c-1.10199,0.07559-2.05658-0.75647-2.13217-1.85846l-4.56216-66.51675
			c-0.07556-1.10199,0.7565-2.05658,1.85846-2.13217l89.97897-6.17136c1.10199-0.07559,2.05658,0.75647,2.1322,1.85846
			l4.56213,66.51675C564.50696,457.77316,563.67487,458.72775,562.57288,458.80334z"/>
		<path class="st1" d="M575.25226,476.96347h-90.19037c-1.10455,0-2-0.89542-2-2v-66.67303c0-1.10455,0.89545-2,2-2h90.19037
			c1.10461,0,2,0.89545,2,2v66.67303C577.25226,476.06805,576.35687,476.96347,575.25226,476.96347z"/>
		<path class="st1" d="M575.25226,476.96347h-90.19037c-1.10455,0-2-0.89542-2-2v-26.11011h94.19037v26.11011
			C577.25226,476.06805,576.35687,476.96347,575.25226,476.96347z"/>
		<path class="st1" d="M483.06189,441.62695l18.99124-18.99121c0.98141-0.98141,2.5726-0.98141,3.55405,0l32.1203,32.12027
			c1.58313,1.58316,0.46185,4.29013-1.77704,4.29013h-52.88855V441.62695z"/>
		<circle class="st1" cx="540.76105" cy="427.85397" r="7.79795"/>
	</g>
	<g>
		<path class="st3" d="M565.65564,472.69147l-68.2937,4.68402c-1.10199,0.07559-2.05658-0.75647-2.13217-1.85846l-3.4462-50.24582
			c-0.07559-1.10199,0.75647-2.05658,1.85846-2.13217l68.2937-4.68402c1.10199-0.07559,2.05658,0.75647,2.13214,1.85846
			l3.44623,50.24582C567.58966,471.66125,566.75763,472.61588,565.65564,472.69147z"/>
		<path class="st3" d="M575.4079,486.62921h-68.45413c-1.10455,0-2-0.89545-2-2v-50.36386c0-1.10458,0.89545-2,2-2h68.45413
			c1.10455,0,2,0.89542,2,2v50.36386C577.4079,485.73376,576.51245,486.62921,575.4079,486.62921z"/>
		<path class="st9" d="M565.65564,463.02573l-68.2937,4.68405c-1.10199,0.07556-2.05658-0.7565-2.13217-1.85846l-3.4462-50.24585
			c-0.07559-1.10196,0.75647-2.05658,1.85846-2.13214l68.2937-4.68405c1.10199-0.07559,2.05658,0.75647,2.13214,1.85846
			l3.44623,50.24582C567.58966,461.99554,566.75763,462.95013,565.65564,463.02573z"/>
		<path class="st4" d="M575.4079,476.96347h-68.45413c-1.10455,0-2-0.89542-2-2v-50.36386c0-1.10458,0.89545-2,2-2h68.45413
			c1.10455,0,2,0.89542,2,2v50.36386C577.4079,476.06805,576.51245,476.96347,575.4079,476.96347z"/>
		<path class="st17" d="M575.4079,476.96347h-68.45413c-1.10455,0-2-0.89542-2-2v-19.62314h72.45413v19.62314
			C577.4079,476.06805,576.51245,476.96347,575.4079,476.96347z"/>
		<path class="st12" d="M504.95377,449.78156l14.60861-14.60864c0.75494-0.75494,1.97894-0.75494,2.73389,0l24.70795,24.70792
			c1.21777,1.2178,0.35529,3.30008-1.36694,3.30008h-40.6835V449.78156z"/>
		<circle class="st9" cx="549.33771" cy="439.18692" r="5.99843"/>
	</g>
</g>
<g>
	<g>
		<path class="st1" d="M718.46283,477.10071h-78.49542c-1.10455,0-2-0.89545-2-2V371.58743c0-1.10455,0.89545-2,2-2h78.49542
			c1.10455,0,2,0.89545,2,2v103.51328C720.46283,476.20526,719.56738,477.10071,718.46283,477.10071z"/>
		
			<rect x="638.56097" y="391.45517" transform="matrix(-1.836970e-16 1 -1 -1.836970e-16 1100.68774 -257.7428)" class="st1" width="81.30867" height="60.03466"/>
		<rect x="664.54962" y="412.49738" class="st1" width="28.19919" height="28.19919"/>
		<circle class="st1" cx="690.49774" cy="415.23337" r="10.16324"/>
		<circle class="st1" cx="679.14124" cy="469.88776" r="2.44305"/>
		<path class="st1" d="M709.5896,439.61157l-4.08197,1.16565c-1.96106,0.56-3.77399-1.25293-3.21399-3.21399l1.16565-4.08197
			l39.0824-39.0824l6.13031,6.13031L709.5896,439.61157z"/>
		<line class="st1" x1="746.95563" y1="386.30801" x2="756.76288" y2="396.11526"/>
	</g>
	<g>
		<path class="st3" d="M723.13257,487.55307h-59.45795c-1.10461,0-2-0.89545-2-2v-78.70251c0-1.10455,0.89539-2,2-2h59.45795
			c1.10461,0,2,0.89545,2,2v78.70251C725.13257,486.65762,724.23718,487.55307,723.13257,487.55307z"/>
		<path class="st4" d="M723.13257,477.10071h-59.45795c-1.10461,0-2-0.89545-2-2v-78.70251c0-1.10458,0.89539-2,2-2h59.45795
			c1.10461,0,2,0.89542,2,2v78.70251C725.13257,476.20526,724.23718,477.10071,723.13257,477.10071z"/>
		
			<rect x="662.13116" y="411.21951" transform="matrix(-1.836970e-16 1 -1 -1.836970e-16 1127.7135 -259.09396)" class="st9" width="62.54513" height="46.18051"/>
		<rect x="682.12244" y="427.40585" class="st16" width="21.69168" height="21.69168"/>
		<circle class="st4" cx="702.08252" cy="429.51044" r="7.81787"/>
		<circle class="st7" cx="693.3468" cy="471.55228" r="1.87927"/>
		<path class="st3" d="M715.71478,452.43127l-3.26544-0.02408c-1.56879-0.01157-2.51404-1.74246-1.67584-3.06857l1.74481-2.76028
			l37.31403-20.3783l3.19647,5.85294L715.71478,452.43127z"/>
		<path class="st4" d="M716.76862,448.26291l-3.14001,0.89664c-1.50848,0.43079-2.90308-0.96378-2.47229-2.47229l0.89667-3.13998
			l30.06335-30.06335l4.71564,4.71561L716.76862,448.26291z"/>
		<line class="st4" x1="745.51166" y1="407.26016" x2="753.05573" y2="414.8042"/>
	</g>
</g>
<g>
	<g>
		<path class="st1" d="M890.48706,477.69858H786.37347c-1.10455,0-2-0.89542-2-2V412.0249c0-1.10455,0.89545-2,2-2h104.11359
			c1.10461,0,2,0.89545,2,2v63.67368C892.48706,476.80316,891.59167,477.69858,890.48706,477.69858z"/>
		<polygon class="st1" points="842.70038,477.69858 826.57544,477.69858 855.17542,410.0249 871.30035,410.0249 		"/>
		<path class="st1" d="M889.62726,477.69861c1.57953,0,2.86005-1.28049,2.86005-2.86002v-57.66373
			c0-0.45459-17.67133,42.34937-23.85004,56.5321c-0.823,1.8891,0.56604,3.99164,2.62665,3.99164H889.62726z"/>
		<ellipse class="st18" cx="838.43744" cy="444.75247" rx="21.57471" ry="13.89361"/>
		<path class="st1" d="M838.43744,372.43735c-15.22937,0-27.58478,12.35522-27.58478,27.58469
			c0,15.22952,21.97931,44.73044,27.58478,44.73044c5.59119,0,27.57043-29.50092,27.57043-44.73044
			C866.00787,384.79257,853.66711,372.43735,838.43744,372.43735z M838.43744,410.30374c-5.49133,0-9.93842-4.4473-9.93842-9.92422
			c0-5.49115,4.44708-9.93842,9.93842-9.93842c5.47699,0,9.92413,4.44727,9.92413,9.93842
			C848.36157,405.85645,843.91443,410.30374,838.43744,410.30374z"/>
	</g>
	<g>
		<path class="st3" d="M890.01245,487.55307h-79.16431c-1.10455,0-2-0.89545-2-2V437.4964c0-1.10458,0.89545-2,2-2h79.16431
			c1.10455,0,2,0.89542,2,2v48.05667C892.01245,486.65762,891.117,487.55307,890.01245,487.55307z"/>
		<path class="st4" d="M890.01245,477.55307h-79.16431c-1.10455,0-2-0.89545-2-2V427.4964c0-1.10458,0.89545-2,2-2h79.16431
			c1.10455,0,2,0.89542,2,2v48.05667C892.01245,476.65762,891.117,477.55307,890.01245,477.55307z"/>
		<polygon class="st9" points="853.71503,477.55307 841.31122,477.55307 863.31122,425.4964 875.71503,425.4964 		"/>
		<path class="st12" d="M889.81262,477.55307c1.21503,0,2.20001-0.98499,2.20001-2.20001v-44.35669
			c0-0.3497-13.59332,32.57642-18.34619,43.48621c-0.63306,1.45316,0.43542,3.0705,2.02051,3.0705H889.81262z"/>
		<ellipse class="st3" cx="850.43579" cy="452.2099" rx="16.59593" ry="10.68739"/>
		<path class="st16" d="M850.43579,396.58289c-11.7149,0-21.21906,9.50403-21.21906,21.21896
			c0,11.71503,16.90717,34.40805,21.21906,34.40805c4.3009,0,21.20807-22.69302,21.20807-34.40805
			C871.64386,406.08691,862.15094,396.58289,850.43579,396.58289z M850.43579,425.71088c-4.22406,0-7.64496-3.42099-7.64496-7.634
			c0-4.22397,3.4209-7.64496,7.64496-7.64496c4.21307,0,7.63397,3.42099,7.63397,7.64496
			C858.06976,422.28989,854.64886,425.71088,850.43579,425.71088z"/>
	</g>
</g>
<g>
	<g>
		<path class="st1" d="M255.09332,452.75839c0,12.37289-10.03333,22.39459-22.39456,22.39459h-56.94095
			c-12.3611,0-22.39456-10.0217-22.39456-22.39459c0-11.89563,9.30002-21.63803,21.02116-22.34802
			c4.86528-11.68613,16.3885-19.90369,29.8438-19.90369c13.45544,0,24.97867,8.21756,29.84409,19.90369
			C245.7933,431.12036,255.09332,440.86276,255.09332,452.75839z"/>
		<g>
			<path class="st1" d="M146.41359,466.72409c-4.24562,4.24564-22.65176,15.76825-26.89739,11.52261
				c-4.24564-4.24564,7.27698-22.65176,11.52261-26.8974c4.24564-4.24564,11.12917-4.24564,15.37479,0
				C150.65923,455.59494,150.65923,462.47845,146.41359,466.72409z"/>
			<path class="st1" d="M140.1825,441.96954c-2.30658,4.15793-21.19016,13.6673-25.52679,9.19269
				c-2.31622-2.38992,5.46046-19.91684,17.62088-18.36249C139.03038,433.66302,141.30156,439.95227,140.1825,441.96954z"/>
			<path class="st1" d="M155.79337,457.58041c-4.15793,2.30658-13.6673,21.19016-9.19269,25.52679
				c2.38991,2.31622,19.91684-5.46045,18.36247-17.62088C164.09987,458.73251,157.81062,456.46133,155.79337,457.58041z"/>
			<path class="st1" d="M179.03917,453.10599c-18.59592,18.59589-29.17249,13.77902-38.66689,4.28464
				c-9.49438-9.49442-14.31127-20.07098,4.28465-38.6669c18.5959-18.59592,53.56273-38.16928,63.05711-28.67487
				C217.20845,399.54324,197.63509,434.51007,179.03917,453.10599z"/>
			
				<ellipse transform="matrix(0.70711 -0.70711 0.70711 0.70711 -260.16165 242.39893)" class="st1" cx="162.52055" cy="435.24234" rx="9.17957" ry="9.17957"/>
			<path class="st1" d="M185.99538,411.76752c4.74124,4.74124,9.65353,8.97485,14.58597,12.64941
				c8.30022-14.58719,12.6781-28.82269,7.13271-34.3681c-5.54539-5.54538-19.78093-1.16751-34.36809,7.13272
				C177.02052,402.11398,181.25414,407.02628,185.99538,411.76752z"/>
			<line class="st11" x1="144.85306" y1="452.90985" x2="131.40668" y2="466.35623"/>
		</g>
	</g>
	<g>
		<path class="st3" d="M255.84193,467.73926c0,9.51761-7.71794,17.22659-17.22659,17.22659h-43.80072
			c-9.50854,0-17.22659-7.70898-17.22659-17.22659c0-9.15048,7.15387-16.64462,16.17014-17.1908
			c3.74252-8.98932,12.60654-15.31052,22.95676-15.31052c10.35034,0,19.21437,6.3212,22.95699,15.31052
			C248.68806,451.09464,255.84193,458.58878,255.84193,467.73926z"/>
		<path class="st4" d="M255.84193,458.78574c0,9.51761-7.71794,17.22659-17.22659,17.22659h-43.80072
			c-9.50854,0-17.22659-7.70898-17.22659-17.22659c0-9.15048,7.15387-16.64465,16.17014-17.1908
			c3.74252-8.98932,12.60654-15.31052,22.95676-15.31052c10.35034,0,19.21437,6.3212,22.95699,15.31052
			C248.68806,442.14108,255.84193,449.63525,255.84193,458.78574z"/>
		<path class="st3" d="M216.11806,441.82358c0.01825-0.0361,0.03683-0.0723,0.05498-0.1084
			c1.35965-2.70789,2.50179-5.34842,3.36064-7.83212c0.03836-0.11072,0.07344-0.21945,0.11061-0.32959
			c0.16394-0.4856,0.31706-0.96469,0.45816-1.43689c0.04295-0.14331,0.08427-0.28555,0.12503-0.42752
			c0.12624-0.44064,0.24089-0.87378,0.34583-1.30096c0.0354-0.14362,0.07234-0.28802,0.10513-0.43002
			c0.10208-0.44183,0.18953-0.87372,0.26701-1.29898c0.01978-0.10873,0.04437-0.22049,0.06262-0.32809
			c0.17793-1.05527,0.27675-2.05527,0.28767-2.98932c0.00153-0.12131-0.00656-0.23514-0.00809-0.35416
			c-0.00438-0.33051-0.01596-0.6553-0.04372-0.96777c-0.01323-0.15073-0.03455-0.29498-0.05334-0.44135
			c-0.03476-0.26895-0.07716-0.53165-0.13115-0.78534c-0.03148-0.14813-0.06645-0.29312-0.10471-0.43588
			c-0.06393-0.23944-0.13968-0.46915-0.22296-0.69281c-0.04886-0.13153-0.09596-0.26422-0.1517-0.39014
			c-0.10121-0.22876-0.2197-0.44266-0.34352-0.65216c-0.05891-0.09964-0.11028-0.20554-0.17444-0.30069
			c-0.19815-0.29388-0.41631-0.5708-0.66573-0.82025c-0.24953-0.24948-0.52637-0.46756-0.82037-0.66577
			c-0.09509-0.06418-0.20099-0.11554-0.30057-0.17444c-0.20963-0.1239-0.42342-0.24237-0.65227-0.34354
			c-0.12592-0.05566-0.25861-0.10284-0.39009-0.1517c-0.22372-0.08322-0.45335-0.15897-0.69283-0.22302
			c-0.14273-0.03812-0.28766-0.07321-0.43587-0.10471c-0.25368-0.05386-0.51631-0.09634-0.7854-0.13107
			c-0.14624-0.01886-0.29051-0.04013-0.44135-0.05341c-0.31236-0.02771-0.63719-0.03931-0.9677-0.04361
			c-0.11903-0.00153-0.2328-0.00961-0.35413-0.00815c-0.93382,0.01089-1.93355,0.10962-2.98848,0.28763
			c-0.10864,0.01834-0.22154,0.04312-0.33139,0.06317c-0.42439,0.07736-0.85535,0.16458-1.29625,0.26645
			c-0.14262,0.03302-0.28766,0.07001-0.43182,0.10553c-0.42604,0.10471-0.85809,0.21902-1.29767,0.345
			c-0.14308,0.04105-0.28625,0.08261-0.43074,0.12585c-0.47139,0.14093-0.94968,0.29382-1.4344,0.45746
			c-0.11061,0.03738-0.22002,0.07263-0.33139,0.11115c-2.48233,0.85852-5.1214,2.00006-7.82767,3.35867
			c-0.03946,0.01984-0.07903,0.04022-0.11859,0.06012c-0.6431,0.3241-1.28903,0.66013-1.93803,1.0076
			c-0.04591,0.02448-0.0916,0.04895-0.13739,0.07361c-0.67447,0.36258-1.35057,0.7359-2.02853,1.12158
			c-0.00142,0.00076-0.00273,0.00153-0.00415,0.00232v0.00003c-7.99086,4.54688-16.11865,10.62106-22.06851,16.57089
			c-4.18146,4.18149-6.81483,7.83279-8.27831,11.09338c-0.39336-0.1127-0.80202-0.20911-1.245-0.26572
			c-9.3541-1.19568-15.3362,12.28659-13.55457,14.125c2.18777,2.25729,9.18797-0.11188,14.24815-2.91226
			c0.19336,0.48599,0.4126,0.96384,0.65852,1.43359c-0.83197,0.39832-1.61496,0.93323-2.30418,1.62256
			c-3.26599,3.26587-12.12946,17.42447-8.86359,20.69028c3.26587,3.26587,17.42442-5.59766,20.69029-8.86353
			c0.68933-0.68933,1.22423-1.47226,1.6226-2.30423c0.46976,0.24597,0.9476,0.46521,1.43353,0.65851
			c-2.80038,5.06012-5.16948,12.06039-2.91231,14.24811c1.83847,1.78174,15.32069-4.20035,14.12498-13.5545
			c-0.05661-0.44293-0.15302-0.85159-0.26558-1.2449c3.26051-1.46356,6.91188-4.09689,11.09332-8.27847
			c6.45645-6.45639,13.05891-15.47675,17.69656-24.10437c0.02339-0.04361,0.04668-0.08704,0.06995-0.13058
			C215.45453,443.11929,215.79247,442.46997,216.11806,441.82358z"/>
		<g>
			<path class="st9" d="M172.24214,469.52856c-3.26587,3.26587-17.42444,12.12943-20.69031,8.86356
				s5.59767-17.42444,8.86354-20.69031c3.26588-3.26587,8.5609-3.26587,11.82677,0S175.50801,466.2627,172.24214,469.52856z"/>
			<path class="st12" d="M167.44899,450.4866c-1.77429,3.19839-16.30013,10.51331-19.636,7.07129
				c-1.78171-1.83838,4.20036-15.32065,13.55452-14.12497C166.56274,444.09698,168.30981,448.93488,167.44899,450.4866z"/>
			<path class="st12" d="M179.45735,462.49496c-3.19841,1.77429-10.51331,16.30011-7.0713,19.63599
				c1.83839,1.78171,15.32066-4.20035,14.12498-13.5545C185.84697,463.3812,181.00909,461.63416,179.45735,462.49496z"/>
			<path class="st4" d="M197.33875,459.0531c-14.30455,14.30453-22.44038,10.59924-29.74376,3.29587
				s-11.00867-15.43921,3.29588-29.74374c14.30455-14.30457,41.20209-29.36099,48.50548-22.05762
				C226.69972,417.85098,211.6433,444.74854,197.33875,459.0531z"/>
			
				<ellipse transform="matrix(0.70711 -0.70711 0.70711 0.70711 -260.80551 260.98343)" class="st17" cx="184.63211" cy="445.31183" rx="7.06121" ry="7.06121"/>
			<path class="st16" d="M202.68967,427.25427c3.64711,3.64709,7.4258,6.90375,11.21997,9.73032
				c6.38478-11.22089,9.7524-22.1713,5.48671-26.43698c-4.2657-4.26569-15.21609-0.8981-26.437,5.48669
				C195.78593,419.82849,199.04256,423.60718,202.68967,427.25427z"/>
			<line class="st19" x1="171.04173" y1="458.90222" x2="160.69836" y2="469.24557"/>
		</g>
		<circle class="st4" cx="210.22829" cy="451.33237" r="8.81359"/>
	</g>
</g>
<g>
	<g>
		<path class="st20" d="M827.85529,640.07062v24.25806h-16.67914c-6.69489,0-12.12878-5.42102-12.12878-12.12903
			c0-6.69501,5.4339-12.12903,12.12878-12.12903H827.85529z"/>
		<rect x="809.9444" y="631.85297" class="st20" width="87.25094" height="42.44173"/>
		<circle class="st20" cx="866.53027" cy="654.37384" r="12.40871"/>
		<path class="st20" d="M894.539,730.30475h-92.89429c-1.43597,0-2.60004-1.16406-2.60004-2.59998v-73.33093H894.539
			c1.43591,0,2.59998,1.16406,2.59998,2.59998v70.73096C897.13898,729.14069,895.97491,730.30475,894.539,730.30475z"/>
		<path class="st20" d="M897.13898,676.63245v31.4137h-20.79028c-8.60901,0-15.60974-7.0401-15.60974-15.716
			c0-8.65759,7.00073-15.69769,15.60974-15.69769H897.13898z"/>
		<circle class="st20" cx="876.54834" cy="692.27917" r="5.68474"/>
	</g>
	<g>
		<path class="st3" d="M894.8269,740.94495h-71.45715c-1.10455,0-2-0.89545-2-2v-56.40839h73.45715c1.10455,0,2,0.89539,2,2
			v54.40839C896.8269,740.0495,895.93146,740.94495,894.8269,740.94495z"/>
		<path class="st16" d="M843.53174,661.53406v18.66003h-12.83008c-5.1499,0-9.32983-4.17004-9.32983-9.33002
			c0-5.15002,4.17993-9.33002,9.32983-9.33002H843.53174z"/>
		<rect x="829.75415" y="655.21277" class="st12" width="67.1161" height="32.64749"/>
		<circle class="st9" cx="873.28174" cy="672.53656" r="9.54517"/>
		<path class="st4" d="M894.8269,730.94495h-71.45715c-1.10455,0-2-0.89545-2-2v-56.40839h73.45715c1.10455,0,2,0.89539,2,2
			v54.40839C896.8269,730.0495,895.93146,730.94495,894.8269,730.94495z"/>
		<path class="st17" d="M901.8269,689.65857v24.16437h-15.99249c-6.62231,0-12.00751-5.41547-12.00751-12.08923
			c0-6.65973,5.38519-12.07513,12.00751-12.07513H901.8269z"/>
		<circle class="st10" cx="885.98798" cy="701.69446" r="4.37288"/>
	</g>
</g>
<g>
	<g>
		<path class="st20" d="M575.32404,730.3089H474.19919c-1.6525,0-2.99213-1.3396-2.99213-2.99207v-73.62756
			c0-1.65253,1.33963-2.99213,2.99213-2.99213h101.12485c1.65247,0,2.99213,1.3396,2.99213,2.99213v73.62756
			C578.31616,728.9693,576.9765,730.3089,575.32404,730.3089z"/>
		<rect x="471.20706" y="666.15759" class="st20" width="107.10907" height="11.87515"/>
		<circle class="st20" cx="490.0372" cy="712.05457" r="7.43477"/>
		<circle class="st20" cx="503.55496" cy="712.05457" r="7.43477"/>
		<path class="st21" d="M598.36804,725.97791h-38.9032v-26.17084c0-10.72577,8.72583-19.4516,19.4516-19.4516
			s19.4516,8.72583,19.4516,19.4516V725.97791z M566.22375,719.21906h25.38538v-19.41199
			c0-6.99915-5.69354-12.69269-12.69269-12.69269s-12.69269,5.69354-12.69269,12.69269V719.21906z"/>
		<path class="st20" d="M594.98907,694.39978v22.79102h-32.14526v-22.79102c0-8.8811,7.2049-16.07251,16.07263-16.07251
			S594.98907,685.51868,594.98907,694.39978z"/>
		<circle class="st20" cx="578.91644" cy="722.36475" r="24.66991"/>
		<path class="st20" d="M583.04706,723.56177c0.25598,0.70557,0.33521,1.49854,0.19171,2.32117
			c-0.29974,1.71747-1.68231,3.12976-3.38922,3.4848c-2.82404,0.58752-5.32635-1.57147-5.32635-4.29614
			c0-0.5423,0.09613-1.06189,0.27393-1.54059c0.16986-0.45752,0.07739-0.96808-0.24866-1.33124
			c-1.21729-1.35565-1.80176-3.28564-1.31244-5.33173c0.50098-2.0946,2.21118-3.78955,4.3114-4.26642
			c3.82483-0.86853,7.22235,2.01849,7.22235,5.71112c0,1.49152-0.55835,2.85278-1.48181,3.88312
			C582.95355,722.56897,582.87628,723.09076,583.04706,723.56177z"/>
	</g>
	<g>
		<path class="st3" d="M603.32074,734.84723c0,10.48145-8.4953,18.97681-18.97687,18.97681
			c-8.34985,0-15.43109-5.38629-17.96826-12.87299h-62.58713c-1.26855,0-2.29797-1.02948-2.29797-2.29803v-56.63947
			c0-1.26855,1.02942-2.29797,2.29797-2.29797h77.78958c1.26855,0,2.30835,1.02942,2.30835,2.29797v33.86719
			c0.15588-0.01038,0.30145-0.01038,0.45746-0.01038C594.82544,715.87036,603.32074,724.36578,603.32074,734.84723z"/>
		<path class="st4" d="M581.58051,730.55731h-77.78836c-1.27115,0-2.30164-1.03052-2.30164-2.30164v-56.6366
			c0-1.27112,1.03049-2.30164,2.30164-2.30164h77.78836c1.27112,0,2.30157,1.03052,2.30157,2.30164v56.6366
			C583.88208,729.52679,582.85162,730.55731,581.58051,730.55731z"/>
		<rect x="501.49051" y="681.21008" class="st10" width="82.39159" height="9.13473"/>
		<circle class="st16" cx="515.97522" cy="716.5155" r="5.71905"/>
		<circle class="st9" cx="526.37347" cy="716.5155" r="5.71905"/>
		<path class="st3" d="M599.30664,727.22577H569.3811V707.0943c0-8.25055,6.71222-14.96271,14.96277-14.96271
			c8.25061,0,14.96277,6.71216,14.96277,14.96271V727.22577z M574.58026,722.02661h19.52722V707.0943
			c0-5.38391-4.37964-9.76361-9.76361-9.76361c-5.38391,0-9.76361,4.3797-9.76361,9.76361V722.02661z"/>
		<path class="st22" d="M596.70746,702.93488v17.53156h-24.72711v-17.53156c0-6.8316,5.54224-12.36346,12.36353-12.36346
			C591.16522,690.57141,596.70746,696.10327,596.70746,702.93488z"/>
		<circle class="st9" cx="584.34387" cy="724.44641" r="18.97685"/>
		<path class="st12" d="M587.5213,725.36713c0.19684,0.54279,0.25781,1.15277,0.1474,1.78552
			c-0.23053,1.32117-1.29401,2.40753-2.60706,2.68066c-2.1723,0.4519-4.09723-1.2088-4.09723-3.30475
			c0-0.41711,0.07397-0.81683,0.21075-1.18506c0.13068-0.35193,0.05957-0.74463-0.19128-1.02399
			c-0.93634-1.04285-1.38599-2.52747-1.00958-4.10138c0.38538-1.61121,1.70093-2.91498,3.31647-3.28186
			c2.9422-0.66809,5.55566,1.55273,5.55566,4.39319c0,1.14734-0.4295,2.19446-1.13983,2.987
			C587.44934,724.60345,587.38989,725.00488,587.5213,725.36713z"/>
	</g>
</g>
<g>
	<g>
		<path class="st20" d="M645.23608,721.03235l59.46021,18.25562c1.13745,0.34924,2.34259-0.28973,2.69177-1.42712l22.3316-72.73608
			c0.20447-0.66589,0.07434-1.38953-0.3493-1.9425l-23.2254-30.31421c-0.55878-0.72937-1.51862-1.02405-2.39038-0.73395
			l-36.2348,12.05865c-0.66095,0.21997-1.17474,0.74591-1.37921,1.4118l-22.3316,72.73602
			C643.45972,719.47803,644.09869,720.68317,645.23608,721.03235z"/>
		<path class="st20" d="M733.60406,734.29242h-62.19952c-1.18982,0-2.15436-0.96454-2.15436-2.15436v-76.08704
			c0-0.69653,0.33685-1.35016,0.90411-1.75439l31.09979-22.16254c0.74817-0.5332,1.75226-0.5332,2.50049,0l31.09979,22.16254
			c0.56726,0.40424,0.90405,1.05786,0.90405,1.75439v76.08704C735.75842,733.32788,734.79388,734.29242,733.60406,734.29242z"/>
		<circle class="st20" cx="702.50433" cy="651.35034" r="6.15312"/>
		<path class="st23" d="M702.33124,649.63019c-2.59723,0-4.7027-7.83325-4.7027-17.49609
			c0-9.66278,2.10547-17.49603,4.7027-17.49603s4.70264,7.83325,4.70264,17.49603"/>
		<rect x="678.95764" y="697.47772" class="st20" width="35.55195" height="16.8604"/>
		<line class="st20" x1="722.8324" y1="694.58185" x2="722.8324" y2="717.23407"/>
	</g>
	<g>
		<path class="st3" d="M735.48993,684.59137v58.53656c0,0.9071-0.74213,1.64923-1.65948,1.64923H714.5141l-0.84515,2.75214
			c-0.26801,0.8761-1.19586,1.36053-2.07184,1.09259l-12.52386-3.84473h-13.09052c-0.90692,0-1.64917-0.74213-1.64917-1.64923
			v-2.87573l-18.47119-5.66919c-0.87598-0.26801-1.37085-1.19568-1.10284-2.07184l17.18274-55.9494
			c0.15448-0.51538,0.54633-0.91742,1.06171-1.09265l24.25354-8.06049l3.61798-1.20599l3.1026,2.20587l20.82135,14.83258
			C735.23224,683.56061,735.48993,684.05536,735.48993,684.59137z"/>
		<path class="st3" d="M713.97809,668.40851l-3.1026-2.20587c0.67004-0.22668,1.40179,0,1.83478,0.55664L713.97809,668.40851z"/>
		<path class="st3" d="M710.87549,666.20264l-3.61798,1.20599l1.69049-1.20599
			C709.52527,665.79034,710.29834,665.79034,710.87549,666.20264z"/>
		<path class="st16" d="M665.85785,724.27338l45.73865,14.04279c0.87488,0.26862,1.80194-0.2229,2.07056-1.09784l17.17816-55.95081
			c0.15729-0.51221,0.05713-1.06891-0.26874-1.49426l-17.86566-23.3186c-0.42981-0.56104-1.16815-0.78772-1.83875-0.56458
			l-27.87292,9.27588c-0.50842,0.16919-0.90369,0.57379-1.06097,1.086l-17.1781,55.95081
			C664.49139,723.0777,664.98291,724.0047,665.85785,724.27338z"/>
		<path class="st4" d="M733.83319,734.47339h-47.84576c-0.91522,0-1.65717-0.74194-1.65717-1.65717v-58.5285
			c0-0.53583,0.25903-1.03857,0.69543-1.34955l23.92291-17.0481c0.57556-0.41016,1.3479-0.41016,1.92346,0l23.92291,17.0481
			c0.43634,0.31097,0.69543,0.81372,0.69543,1.34955v58.5285C735.49042,733.73145,734.74847,734.47339,733.83319,734.47339z"/>
		<circle class="st4" cx="709.91034" cy="670.67181" r="4.73317"/>
		<path class="st15" d="M709.77716,669.34857c-1.99786,0-3.61743-6.02557-3.61743-13.4585s1.61957-13.4585,3.61743-13.4585
			s3.61743,6.02557,3.61743,13.4585"/>
		<rect x="691.79749" y="706.15442" class="st12" width="27.34766" height="12.96954"/>
		<line class="st22" x1="725.5473" y1="703.92682" x2="725.5473" y2="721.35156"/>
	</g>
</g>
<g>
	<g>
		<path class="st20" d="M236.0983,653.84662h-10.01988c-0.24983,0-0.45236-0.20251-0.45236-0.45233v-15.58514
			c0-0.24982,0.20253-0.45233,0.45236-0.45233h10.01988c0.24983,0,0.45236,0.20251,0.45236,0.45233v15.58514
			C236.55066,653.6441,236.34813,653.84662,236.0983,653.84662z"/>
		<path class="st20" d="M218.48717,641.80719h-47.32939c-0.62492,0-1.13153-0.50659-1.13153-1.13153v-25.6792
			c0-0.62494,0.50661-1.13153,1.13153-1.13153h47.32939c0.62491,0,1.13152,0.50659,1.13152,1.13153v25.6792
			C219.61868,641.3006,219.11208,641.80719,218.48717,641.80719z"/>
		<path class="st20" d="M225.34996,695.69098h-61.05499c-1.11353,0-2.01622-0.90271-2.01622-2.01624v-63.56519
			c0-1.11353,0.90269-2.01624,2.01622-2.01624h61.05499c1.11354,0,2.01622,0.90271,2.01622,2.01624v63.56519
			C227.36618,694.78827,226.4635,695.69098,225.34996,695.69098z"/>
		<rect x="172.16637" y="638.3623" class="st20" width="45.31221" height="47.05974"/>
		<path class="st20" d="M218.32799,696.11908h-47.01105c-0.71283,0-1.2907,0.57782-1.2907,1.29065v33.77496
			c0,0.71283,0.57787,1.29071,1.2907,1.29071h47.01105c0.71283,0,1.2907-0.57788,1.2907-1.29071v-33.77496
			C219.61868,696.6969,219.04082,696.11908,218.32799,696.11908z"/>
		<circle class="st20" cx="194.30966" cy="662.6543" r="10.21219"/>
	</g>
	<g>
		<path class="st3" d="M221.96339,714.82318h-36.16235c-0.54832,0-0.99284,0.44446-0.99284,0.9928v25.98077
			c0,0.54834,0.44452,0.9928,0.99284,0.9928h36.16235c0.54832,0,0.99283-0.44446,0.99283-0.9928v-25.98077
			C222.95622,715.26764,222.51172,714.82318,221.96339,714.82318z"/>
		<path class="st12" d="M235.63286,672.30591h-7.70761c-0.19218,0-0.34798-0.15576-0.34798-0.34796v-11.98859
			c0-0.19214,0.15579-0.34796,0.34798-0.34796h7.70761c0.19217,0,0.34796,0.15582,0.34796,0.34796v11.98859
			C235.98082,672.15015,235.82503,672.30591,235.63286,672.30591z"/>
		<path class="st17" d="M222.08583,663.0448H185.6786c-0.48071,0-0.87041-0.38971-0.87041-0.87036v-19.7533
			c0-0.48071,0.38969-0.87042,0.87041-0.87042h36.40723c0.4807,0,0.87039,0.38971,0.87039,0.87042v19.7533
			C222.95622,662.65509,222.56653,663.0448,222.08583,663.0448z"/>
		<path class="st4" d="M227.36491,704.49384h-46.96539c-0.85655,0-1.55093-0.69434-1.55093-1.5509v-48.8963
			c0-0.85657,0.69438-1.55096,1.55093-1.55096h46.96539c0.85655,0,1.55093,0.6944,1.55093,1.55096v48.8963
			C228.91585,703.7995,228.22147,704.49384,227.36491,704.49384z"/>
		<rect x="186.45444" y="660.3949" class="st9" width="34.85555" height="36.1998"/>
		<path class="st17" d="M221.96339,704.82318h-36.16235c-0.54832,0-0.99284,0.44446-0.99284,0.9928v25.98077
			c0,0.54834,0.44452,0.9928,0.99284,0.9928h36.16235c0.54832,0,0.99283-0.44446,0.99283-0.9928v-25.98077
			C222.95622,705.26764,222.51172,704.82318,221.96339,704.82318z"/>
		<circle class="st16" cx="203.48775" cy="679.08099" r="7.85553"/>
	</g>
</g>
<g>
	<g>
		<circle class="st20" cx="366.3685" cy="683.80408" r="55.29462"/>
		<circle class="st20" cx="366.3685" cy="683.80408" r="44.43227"/>
		<path class="st20" d="M342.43491,705.56262l12.72186-32.0318c0.17026-0.42871,0.50977-0.76819,0.93848-0.93848l32.0318-12.72186
			c1.36505-0.54211,2.71719,0.81,2.17505,2.17505l-12.72186,32.03186c-0.17026,0.42865-0.50977,0.76819-0.93848,0.93842
			l-32.0318,12.72186C343.2449,708.27985,341.89276,706.92767,342.43491,705.56262z"/>
		<circle class="st20" cx="366.3685" cy="683.80408" r="5.84553"/>
		<line class="st20" x1="349.24786" y1="666.82227" x2="344.80142" y2="661.77411"/>
	</g>
	<g>
		<circle class="st3" cx="378.3685" cy="703.80408" r="42.53432"/>
		<circle class="st12" cx="378.3685" cy="693.80408" r="42.53432"/>
		<circle class="st4" cx="378.3685" cy="693.80408" r="34.17867"/>
		<path class="st16" d="M359.95804,710.54144l9.78604-24.63983c0.13098-0.32977,0.39215-0.59094,0.72189-0.72192l24.63986-9.78607
			c1.05005-0.41699,2.09018,0.62311,1.67313,1.67316l-9.78604,24.63983c-0.13098,0.32977-0.39215,0.59094-0.72189,0.72192
			l-24.63986,9.78601C360.58112,712.63159,359.54099,711.59149,359.95804,710.54144z"/>
		<circle class="st4" cx="378.3685" cy="693.80408" r="4.49656"/>
		<line class="st24" x1="365.19879" y1="680.74115" x2="361.77844" y2="676.85797"/>
	</g>
</g>
<g>
	<g>
		<path class="st20" d="M1054.17981,722.19879h-88.9903c-1.43597,0-2.60004-1.16406-2.60004-2.60004l-5.20001-52.47302
			c0-1.43591,1.16406-2.59998,2.60004-2.59998h99.39038c1.43591,0,2.59998,1.16406,2.59998,2.59998l-5.19995,52.47302
			C1056.77991,721.03473,1055.61584,722.19879,1054.17981,722.19879z"/>
		<path class="st20" d="M1067.65002,667.51654H951.71936c-0.83136,0-1.50525-0.67395-1.50525-1.50525V653.7135
			c0-0.8313,0.67389-1.50525,1.50525-1.50525h115.93066c0.8313,0,1.50525,0.67395,1.50525,1.50525v12.29779
			C1069.15527,666.84259,1068.48132,667.51654,1067.65002,667.51654z"/>
		<line class="st20" x1="1009.68469" y1="652.43652" x2="1033.01978" y2="625.38306"/>
		<line class="st20" x1="982.70966" y1="683.34082" x2="982.70966" y2="708.31049"/>
		<line class="st20" x1="1009.68469" y1="683.34082" x2="1009.68469" y2="708.31049"/>
		<line class="st20" x1="1036.65967" y1="683.34082" x2="1036.65967" y2="708.31049"/>
		<circle class="st20" cx="1009.68469" cy="652.06238" r="7.19351"/>
	</g>
	<g>
		<path class="st3" d="M1056.91174,741.69348h-68.45416c-1.10455,0-2-0.89545-2-2v-50.36389c0-1.10455,0.89545-2,2-2h68.45416
			c1.10461,0,2,0.89545,2,2v50.36389C1058.91174,740.79803,1058.01636,741.69348,1056.91174,741.69348z"/>
		<path class="st4" d="M1056.91174,732.02771h-68.45416c-1.10455,0-2-0.89539-2-2l-4-50.36383c0-1.10455,0.89545-2,2-2h76.45416
			c1.10461,0,2,0.89545,2,2l-4,50.36383C1058.91174,731.13232,1058.01636,732.02771,1056.91174,732.02771z"/>
		<path class="st25" d="M1067.27344,679.96448h-89.17749c-0.63947,0-1.1579-0.51843-1.1579-1.1579v-9.45984
			c0-0.63947,0.51843-1.15784,1.1579-1.15784h89.17749c0.6394,0,1.15784,0.51837,1.15784,1.15784v9.45984
			C1068.43127,679.44604,1067.91284,679.96448,1067.27344,679.96448z"/>
		<line class="st13" x1="1022.68469" y1="668.36444" x2="1040.63477" y2="647.55408"/>
		<line class="st22" x1="1001.93469" y1="697.13702" x2="1001.93469" y2="716.34448"/>
		<line class="st22" x1="1022.68469" y1="697.13702" x2="1022.68469" y2="716.34448"/>
		<line class="st22" x1="1043.43469" y1="697.13702" x2="1043.43469" y2="716.34448"/>
		<circle class="st16" cx="1022.68469" cy="668.07666" r="5.53347"/>
	</g>
</g>
<g>
	<g>
		<path class="st20" d="M1008.68494,360.55267"/>
		<path class="st21" d="M1008.93176,440.12677"/>
		<path class="st20" d="M1008.68494,424.25269"/>
		<path class="st20" d="M966.0058,407.75684l42.67896-27.703l42.71808,27.729l8.87891,5.772v3.79599
			c0,1.36499-1.10498,2.483-2.48291,2.483h-22.21704h-53.56H959.5708c-1.37805,0-2.48303-1.11801-2.48303-2.483v-3.79599
			L966.0058,407.75684"/>
		<g>
			<polygon class="st20" points="1046.41089,378.84485 1046.41089,456.71478 970.9588,456.71478 970.9588,401.2178 
				993.34479,401.2178 993.34479,378.84485 			"/>
		</g>
		<polygon class="st20" points="993.34479,378.92285 993.34479,401.2178 971.03687,401.2178 		"/>
		<path class="st21" d="M1060.28174,413.55478v51.46704c0,1.36499-1.10474,2.48297-2.48291,2.48297H959.5708
			c-1.37805,0-2.48322-1.11798-2.48322-2.48297v-51.46704l42.57501,20.55301c2.02808-2.496,5.31714-4.121,9.02222-4.121
			c3.70483,0,6.9939,1.625,9.02197,4.121L1060.28174,413.55478z"/>
		<path class="st20" d="M1060.27808,414.92175v59.63388c0,1.36487-1.10413,2.48166-2.48157,2.48166h-98.22339
			c-1.37744,0-2.48169-1.11679-2.48169-2.48166v-59.63388c0-1.36496,1.10425-2.48166,2.48169-2.48166l33.87445,25.54849
			l15.48547,11.67618l15.15033-11.53964l33.71313-25.68503C1059.17395,412.44009,1060.27808,413.55679,1060.27808,414.92175z"/>
		<path class="st20" d="M1060.27808,470.75873v3.79691c0,1.36487-1.10413,2.48166-2.48157,2.48166h-98.22339
			c-1.37744,0-2.48169-1.11679-2.48169-2.48166v-3.79691l51.59332-30.71857L1060.27808,470.75873z"/>
		<circle class="st20" cx="1008.68475" cy="443.94016" r="7.08499"/>
	</g>
	<g>
		<path class="st3" d="M1060.37195,438.81558v45.87222c0,1.0499-0.84937,1.90894-1.90894,1.90894h-75.55646
			c-1.05957,0-1.90894-0.85904-1.90894-1.90894v-45.87222c0-1.04999,0.84937-1.90897,1.90894-1.90897l26.05731,19.65268
			l11.91187,8.98166l11.65417-8.87662l25.93311-19.75772C1059.52258,436.90662,1060.37195,437.76559,1060.37195,438.81558z"/>
		<g>
			<path class="st26" d="M1020.68488,386.99319"/>
			<path class="st3" d="M1020.87476,448.20407"/>
			<path class="st4" d="M1020.68488,435.99319"/>
			<path class="st27" d="M987.85474,423.30411l32.83002-21.31l32.86005,21.32999l6.82996,4.44v2.91998
				c0,1.05002-0.84998,1.91-1.91003,1.91h-17.08997h-41.20001h-17.27002c-1.06,0-1.90997-0.85999-1.90997-1.91v-2.91998
				L987.85474,423.30411"/>
			<g>
				<polygon class="st25" points="1049.70483,401.06412 1049.70483,460.96408 991.66479,460.96408 991.66479,418.27408 
					1008.88477,418.27408 1008.88477,401.06412 				"/>
			</g>
			<polygon class="st28" points="1008.88477,401.12411 1008.88477,418.27408 991.72485,418.27408 			"/>
			<path class="st3" d="M1060.37476,427.76407v39.59003c0,1.04999-0.84985,1.90997-1.90991,1.90997h-75.56006
				c-1.06006,0-1.91016-0.85999-1.91016-1.90997v-39.59003l32.75,15.81c1.56006-1.91998,4.09009-3.16998,6.94019-3.16998
				c2.84985,0,5.37988,1.25,6.93994,3.16998L1060.37476,427.76407z"/>
			<path class="st4" d="M1060.37195,428.81558v45.87222c0,1.0499-0.84937,1.90894-1.90894,1.90894h-75.55646
				c-1.05957,0-1.90894-0.85904-1.90894-1.90894v-45.87222c0-1.04999,0.84937-1.90897,1.90894-1.90897l26.05731,19.65268
				l11.91187,8.98166l11.65417-8.87662l25.93311-19.75772C1059.52258,426.90662,1060.37195,427.76559,1060.37195,428.81558z"/>
			<path class="st4" d="M1060.37195,471.76709v2.92072c0,1.0499-0.84937,1.90894-1.90894,1.90894h-75.55646
				c-1.05957,0-1.90894-0.85904-1.90894-1.90894v-2.92072l39.68713-23.62967L1060.37195,471.76709z"/>
			<circle class="st17" cx="1020.68475" cy="451.13742" r="5.45"/>
		</g>
	</g>
</g>
</svg>
