<?xml version="1.0" encoding="utf-8"?>
<!-- Generator: Adobe Illustrator 19.1.0, SVG Export Plug-In . SVG Version: 6.00 Build 0)  -->
<!DOCTYPE svg PUBLIC "-//W3C//DTD SVG 1.1//EN" "http://www.w3.org/Graphics/SVG/1.1/DTD/svg11.dtd">
<svg version="1.1" id="Layer_1" xmlns="http://www.w3.org/2000/svg" xmlns:xlink="http://www.w3.org/1999/xlink" x="0px" y="0px"
	 width="1600px" height="1200px" viewBox="0 0 1600 1200" style="enable-background:new 0 0 1600 1200;" xml:space="preserve">
<style type="text/css">
	.st0{fill:#FE3D50;}
	.st1{fill:#51E4C2;}
	.st2{fill:#E5F9F4;}
	.st3{fill:#FFFFFF;}
	.st4{opacity:0.2;fill:#51E4C2;enable-background:new    ;}
	.st5{fill:#2283F6;}
	.st6{opacity:0.3;fill:#252528;enable-background:new    ;}
	.st7{fill:none;}
	.st8{fill:#F8E71C;}
	.st9{opacity:0.2;fill:#F8E71C;enable-background:new    ;}
	.st10{opacity:0.1;fill:#534741;enable-background:new    ;}
	.st11{fill:#534741;}
	.st12{opacity:0.2;fill:#DF71F5;enable-background:new    ;}
	.st13{opacity:0.2;fill:#534741;enable-background:new    ;}
	.st14{opacity:0.5;fill:#FFFFFF;enable-background:new    ;}
	.st15{fill:#DF71F5;}
	.st16{fill:#E4EFEC;}
	.st17{fill:#3ECCA6;}
	.st18{opacity:0.1;fill:#1F211E;enable-background:new    ;}
	.st19{opacity:0.1;fill:#51E4C2;enable-background:new    ;}
	.st20{opacity:0.1;fill:#DF71F5;enable-background:new    ;}
	.st21{fill:none;stroke:#534741;stroke-width:6;stroke-linecap:round;stroke-miterlimit:10;}
	.st22{fill:none;stroke:#FE3D50;stroke-width:3;stroke-linecap:round;stroke-miterlimit:10;}
	.st23{opacity:0.1;fill:#FE3D50;enable-background:new    ;}
	.st24{opacity:0.2;fill:#252528;enable-background:new    ;}
	.st25{opacity:0.2;fill:#2283F6;enable-background:new    ;}
	.st26{opacity:0.2;fill:#FFFFFF;enable-background:new    ;}
	.st27{opacity:0.2;fill:#FE3D50;enable-background:new    ;}
	.st28{fill:#F9EDED;}
	.st29{opacity:0.4;fill:#FE3D50;enable-background:new    ;}
	.st30{opacity:0.3;fill:#FFFFFF;enable-background:new    ;}
	.st31{opacity:0.1;fill:#2283F6;enable-background:new    ;}
	.st32{opacity:0.3;fill:#2283F6;enable-background:new    ;}
	.st33{fill:#F0F2F1;}
	.st34{fill:none;stroke:#E8EDEB;stroke-miterlimit:10;}
	.st35{fill:#E8EDEB;}
	.st36{fill:none;stroke:#F8E71C;stroke-miterlimit:10;}
	.st37{opacity:0.4;fill:#F8E71C;enable-background:new    ;}
	.st38{fill:none;stroke:#E23B53;stroke-miterlimit:10;}
	.st39{fill:none;stroke:#F8E71C;stroke-width:2;stroke-miterlimit:10;}
	.st40{fill:#2283F6;fill-opacity:0.3;}
	.st41{opacity:0.5;fill:#FE3D50;enable-background:new    ;}
	.st42{fill:#E2E6E8;}
	.st43{opacity:0.5;fill:#2283F6;enable-background:new    ;}
	.st44{opacity:0.3;fill:#51E4C2;enable-background:new    ;}
	.st45{fill:none;stroke:#F5F7F6;stroke-miterlimit:10;}
	.st46{opacity:0.4;fill:#51E4C2;enable-background:new    ;}
</style>
<g>
	<circle class="st0" cx="231.4877" cy="268.5" r="80"/>
	<circle class="st1" cx="231.4877" cy="268.5" r="55.88454"/>
	<path class="st2" d="M231.48788,243.97156c-1.69977,0-3.07701-1.37724-3.07701-3.07701v-56.90508
		c0-1.69977,1.37724-3.07701,3.07701-3.07701s3.07701,1.37724,3.07701,3.07701v56.90508
		C234.5649,242.59431,233.18765,243.97156,231.48788,243.97156z"/>
	<path class="st3" d="M231.4877,289.13333c24.80008,0,53.38104,35.3642,69.12769,27.24228
		c15.74664-8.12189,2.71957-69.72092-14.81558-82.82652s-35.67645,5.29442-54.3121,5.29442s-36.77696-18.40002-54.31212-5.29442
		s-30.56223,74.70464-14.81558,82.82652C178.10664,324.49753,206.68762,289.13333,231.4877,289.13333z"/>
	<path class="st4" d="M300.61545,310.22156c-15.74664,8.12195-44.3277-31.34491-69.12781-31.34491
		c-24.8,0-53.38104,39.46686-69.12767,31.34491c-4.65346-2.40018-6.77829-9.48758-7.0322-18.59665
		c-0.32503,11.05673,1.69939,19.9487,7.0322,22.69931c15.74663,8.12198,44.32767-27.24222,69.12767-27.24222
		c24.80011,0,53.38116,35.3642,69.12781,27.24222c5.33279-2.75061,7.35721-11.64258,7.0322-22.69931
		C307.39371,300.73398,305.26889,307.82138,300.61545,310.22156z"/>
	<path class="st4" d="M200.50758,277.41278c-3.60297,3.60297-5.89217,7.83749-10.61443,7.83762
		c-4.72253,0.00009-7.0121-4.23444-10.61528-7.83762c-3.60262-3.60263-7.83717-5.8913-7.8376-10.61313
		c-0.00044-4.72296,4.2341-7.01306,7.8376-10.61658c3.60286-3.60284,5.89188-7.83739,10.61398-7.83762
		c4.72269-0.00021,7.01244,4.23433,10.61572,7.83762c3.60284,3.60284,7.83739,5.89188,7.83762,10.61398
		C208.34541,271.51974,204.11087,273.80948,200.50758,277.41278z"/>
	<path class="st5" d="M200.50758,275.36145c-3.60297,3.60294-5.89217,7.83749-10.61443,7.83759
		c-4.72253,0.00012-7.0121-4.23441-10.61528-7.83759c-3.60262-3.60263-7.83717-5.89133-7.8376-10.61313
		c-0.00044-4.72299,4.2341-7.01306,7.8376-10.61658c3.60286-3.60286,5.89188-7.8374,10.61398-7.83762
		c4.72269-0.00023,7.01244,4.23433,10.61572,7.83762c3.60284,3.60284,7.83739,5.89188,7.83762,10.61398
		C208.34541,269.46841,204.11087,271.75815,200.50758,275.36145z"/>
	<circle class="st6" cx="189.89273" cy="258.62842" r="3.24875"/>
	<circle class="st6" cx="198.06224" cy="266.79794" r="3.24875"/>
	<circle class="st6" cx="189.89273" cy="274.96744" r="3.24875"/>
	<circle class="st6" cx="181.72322" cy="266.79794" r="3.24875"/>
	<circle class="st3" cx="189.89273" cy="256.57709" r="3.24875"/>
	<circle class="st3" cx="198.06224" cy="264.74658" r="3.24875"/>
	<circle class="st4" cx="264.15289" cy="259.92487" r="3.8985"/>
	<circle class="st4" cx="277.81094" cy="254.13428" r="3.8985"/>
	<circle class="st4" cx="265.33542" cy="272.72272" r="3.8985"/>
	<circle class="st4" cx="278.99347" cy="266.93213" r="3.8985"/>
	<line class="st7" x1="222.84387" y1="267.99896" x2="227.03181" y2="267.99896"/>
	<line class="st7" x1="240.13153" y1="267.99896" x2="235.94357" y2="267.99896"/>
	<circle class="st5" cx="264.15289" cy="257.87354" r="3.8985"/>
	<circle class="st5" cx="277.81094" cy="252.08295" r="3.8985"/>
	<circle class="st8" cx="265.33542" cy="270.67139" r="3.8985"/>
	<circle class="st8" cx="278.99347" cy="264.8808" r="3.8985"/>
	<circle class="st3" cx="189.89273" cy="272.91611" r="3.24875"/>
	<circle class="st3" cx="181.72322" cy="264.74658" r="3.24875"/>
	<line class="st7" x1="222.84387" y1="265.94763" x2="227.03181" y2="265.94763"/>
	<path class="st4" d="M227.03163,270.05002h-4.18782c-1.13284,0-2.05133-0.91849-2.05133-2.05133s0.91849-2.05136,2.05133-2.05136
		h4.18782c1.13284,0,2.05135,0.91852,2.05135,2.05136S228.16447,270.05002,227.03163,270.05002z"/>
	<path class="st4" d="M240.13196,270.05002h-4.18881c-1.13284,0-2.05135-0.91849-2.05135-2.05133s0.9185-2.05136,2.05135-2.05136
		h4.18881c1.13284,0,2.05135,0.91852,2.05135,2.05136S241.2648,270.05002,240.13196,270.05002z"/>
	<path class="st8" d="M227.03163,267.99869h-4.18782c-1.13284,0-2.05133-0.91852-2.05133-2.05136s0.91849-2.05133,2.05133-2.05133
		h4.18782c1.13284,0,2.05135,0.91849,2.05135,2.05133S228.16447,267.99869,227.03163,267.99869z"/>
	<line class="st7" x1="240.13153" y1="265.94763" x2="235.94357" y2="265.94763"/>
	<path class="st5" d="M240.13196,267.99869h-4.18881c-1.13284,0-2.05135-0.91852-2.05135-2.05136s0.9185-2.05133,2.05135-2.05133
		h4.18881c1.13284,0,2.05135,0.91849,2.05135,2.05133S241.2648,267.99869,240.13196,267.99869z"/>
</g>
<g>
	<circle class="st5" cx="457.578" cy="268.5" r="80"/>
	<circle class="st8" cx="457.57797" cy="268.5" r="55.88454"/>
	<path class="st0" d="M420.18527,219.96144h-6.93805c-1.10455,0-2,0.89543-2,2v2.30762c0,1.10457,0.89545,2,2,2h6.93805
		c1.10455,0,2-0.89543,2-2v-2.30762C422.18527,220.85687,421.28983,219.96144,420.18527,219.96144z"/>
	<path class="st3" d="M509.99731,310.26337H405.15866c-6.62741,0-12-5.37256-12-12v-62.66249c0-6.62743,5.37259-12,12-12h104.83865
		c6.62744,0,12,5.37257,12,12v62.66249C521.99731,304.89081,516.62476,310.26337,509.99731,310.26337z"/>
	<path class="st9" d="M509.99731,303.26337H405.15863c-6.62738,0-12-5.37256-12-12v5c0,6.62744,5.37262,12,12,12h104.83868
		c6.62744,0,12-5.37256,12-12v-5C521.99731,297.89081,516.62476,303.26337,509.99731,303.26337z"/>
	<circle class="st4" cx="457.578" cy="270.93213" r="29.39273"/>
	<circle class="st1" cx="457.578" cy="266.93213" r="29.39273"/>
	<circle class="st10" cx="457.578" cy="266.93213" r="22.35098"/>
	<circle class="st8" cx="457.578" cy="266.93213" r="20.638"/>
	<circle class="st11" cx="457.578" cy="266.93213" r="16.6265"/>
	<circle class="st12" cx="457.578" cy="266.93213" r="11.53696"/>
	<path class="st13" d="M457.578,274.42355c-7.34555,0-13.4921-5.06573-15.18076-11.8894
		c-0.29907,1.20859-0.47522,2.46548-0.47522,3.76651c0,8.64655,7.00943,15.65591,15.65598,15.65591
		s15.65594-7.00937,15.65594-15.65591c0-1.30103-0.17615-2.55792-0.47525-3.76651
		C471.07007,269.35782,464.92355,274.42355,457.578,274.42355z"/>
	<ellipse class="st14" cx="457.578" cy="255.67804" rx="6.15524" ry="3.76804"/>
	<path class="st0" d="M508.40005,244.29413H494.8075c-1.10455,0-2-0.89543-2-2v-4.75473c0-1.10458,0.89545-2,2-2h13.59256
		c1.10455,0,2,0.89542,2,2v4.75473C510.40005,243.3987,509.50461,244.29413,508.40005,244.29413z"/>
	<rect x="494.80762" y="237.53955" class="st11" width="13.59229" height="4.75439"/>
</g>
<g>
	<circle class="st15" cx="683.7392" cy="268.5" r="80"/>
	<circle class="st1" cx="683.7392" cy="268.5" r="55.88454"/>
	<path class="st16" d="M738.06525,316.16577l-114.89941-11.27325c-1.0993-0.10785-1.90302-1.08646-1.79517-2.18573l7.85675-80.07739
		c0.10785-1.09929,1.08643-1.90302,2.18573-1.79515l114.89941,11.27324c1.09924,0.10786,1.90295,1.08644,1.7951,2.18573
		l-7.85669,80.07739C740.14313,315.46991,739.16455,316.27362,738.06525,316.16577z"/>
	<path class="st3" d="M741.46472,310.73096H626.01361c-1.10455,0-2-0.89545-2-2v-80.4619c0-1.10457,0.89545-2,2-2h115.45111
		c1.10461,0,2,0.89543,2,2v80.4619C743.46472,309.83551,742.56934,310.73096,741.46472,310.73096z"/>
	<polygon class="st17" points="683.7392,278.5 702.90662,259.33258 738.44812,294.87415 738.44812,305.73096 683.73914,305.73096 	
		"/>
	<circle class="st9" cx="719.56879" cy="273.63794" r="14.30533"/>
	<circle class="st8" cx="719.56879" cy="273.63794" r="8.97336"/>
	<path class="st1" d="M629.01379,283.55862c2.86639-2.28229,35.72925-35.72925,35.72925-35.72925l58.04626,58.0463h-93.77551
		V283.55862z"/>
	<ellipse class="st18" cx="648.32654" cy="277.74991" rx="6.47058" ry="3.81927"/>
	<rect x="647.61292" y="268.21634" class="st11" width="1.42719" height="9.53357"/>
	<circle class="st17" cx="648.32654" cy="264.46155" r="6.47058"/>
</g>
<g>
	<circle class="st1" cx="909.7276" cy="268.5" r="80"/>
	<circle class="st0" cx="909.7276" cy="268.5" r="55.88454"/>
	<path class="st3" d="M932.34143,328.26938l-54.776-4.7923c-0.97949-0.08569-1.72021-0.92361-1.68512-1.90622l3.57306-100.0258
		c0.03778-1.05698,0.95355-1.86652,2.00714-1.77434l65.05347,5.69144c1.05359,0.09218,1.81488,1.04845,1.66852,2.09592
		l-13.85052,99.12665C934.19592,327.65851,933.32092,328.35507,932.34143,328.26938z"/>
	<path class="st19" d="M908.37225,316.06882c-0.13599,0.97382-1.01105,1.67035-1.99048,1.58466l-28.0918-2.4577
		c-0.97949-0.08569-1.72028-0.92361-1.68512-1.90622l3.34943-93.76494c-0.24707,0.30118-0.40527,0.67921-0.42041,1.1003
		l-3.57306,100.02579c-0.03516,0.98264,0.70569,1.82053,1.68512,1.90622l54.776,4.79227
		c0.97943,0.08569,1.85449-0.61084,1.99048-1.58463l13.85052-99.12663c0.05835-0.4173-26.71613-3.15164-26.90698-3.49115
		L908.37225,316.06882z"/>
	<path class="st3" d="M946.36176,226.20381l-64.88013-5.67628c-1.08545-0.09496-1.85333-1.10396-1.65564-2.17549l2.22327-12.0489
		c0.17279-0.93642,1.02905-1.58807,1.97766-1.50508l62.55963,5.47325c0.94861,0.08299,1.67871,0.87344,1.68622,1.82564
		l0.09723,12.25192C948.37866,225.43845,947.4472,226.29877,946.36176,226.20381z"/>
	<path class="st19" d="M946.58655,210.27127l-23.59058-2.0639l-1.38501,15.83102l24.75073,2.16541
		c1.08551,0.09497,2.01703-0.76535,2.0083-1.85497l-0.09717-12.25189C948.26526,211.14473,947.5351,210.35426,946.58655,210.27127z"
		/>
	<path class="st19" d="M879.45337,221.54504l-0.23517,6.58229l68.05286,5.95386l0.91138-6.52313
		c0.06427-0.45967-0.05371-0.89679-0.28711-1.25603l-67.94104-5.94408C879.66211,220.67122,879.46997,221.08121,879.45337,221.54504
		z"/>
	<path class="st16" d="M948.85999,231.43869l-70.74768-6.18962c-0.50818-0.04446-0.88409-0.49246-0.8396-1.00064l0.51917-5.93402
		c0.04443-0.50818,0.49243-0.88409,1.00061-0.83965l70.74762,6.18962c0.50824,0.04446,0.88416,0.49246,0.83966,1.00064
		l-0.51917,5.93402C949.81616,231.10722,949.36816,231.48314,948.85999,231.43869z"/>
	<circle class="st1" cx="909.75757" cy="270.96188" r="17.38558"/>
	<circle class="st3" cx="909.75757" cy="270.96188" r="11.77188"/>
	<circle class="st11" cx="909.75757" cy="270.96188" r="10.56415"/>
	<path class="st3" d="M910.08936,267.16931c-1.69611-0.14838-3.21924,1.42419-3.40192,3.51239
		c-0.16046,1.83389,0.76697,3.4538,2.1438,3.92212l0.93042-3.70453l0.00061-0.00696l0.00037,0.00354l0.00098-0.00342
		l-0.00061,0.00696l0.27301,3.81c1.43787-0.22144,2.63318-1.65588,2.79364-3.49033
		C913.01233,269.13086,911.78546,267.31772,910.08936,267.16931z"/>
</g>
<g>
	<circle class="st8" cx="1135.84888" cy="268.5" r="80"/>
	<circle class="st15" cx="1135.84888" cy="268.5" r="55.88454"/>
	<path class="st3" d="M1191.05664,282.64215l-41.06567,41.06567c-7.81042,7.81049-20.47375,7.81049-28.2843,0l-41.06567-41.06567
		c-7.81042-7.81049-7.81042-20.47382,0-28.28429l41.06567-41.06569c7.81055-7.81049,20.47388-7.81049,28.2843,0l41.06567,41.06569
		C1198.86719,262.16833,1198.86719,274.83167,1191.05664,282.64215z"/>
	<path class="st20" d="M1135.84961,328.56592c-5.0752,0-9.84668-1.97656-13.43555-5.56494l-41.06641-41.06592
		c-3.36035-3.36133-5.29199-7.79053-5.5332-12.42383c1.02051,2.1543,2.4082,4.12695,4.11914,5.83789L1121,316.41504
		c3.9668,3.96631,9.24023,6.15088,14.84961,6.15088c5.6084,0,10.88184-2.18457,14.84863-6.15088l41.06543-41.06592
		c1.71094-1.71094,3.09863-3.68408,4.12012-5.83936c-0.24121,4.63379-2.17285,9.06396-5.53418,12.42529l-41.06543,41.06592
		C1145.69531,326.58936,1140.92383,328.56592,1135.84961,328.56592z"/>
	<circle class="st20" cx="1135.84888" cy="268.5" r="18.517"/>
	<line class="st21" x1="1135.84888" y1="268.5" x2="1161.71277" y2="268.5"/>
	<line class="st22" x1="1135.84888" y1="242.02989" x2="1135.84888" y2="268.5"/>
</g>
<g>
	<circle class="st8" cx="228.64294" cy="591.57288" r="80"/>
	<circle class="st0" cx="228.64294" cy="591.57288" r="55.88452"/>
	<path class="st3" d="M285.42206,631.2923H171.86385c-3.81693,0-6.71768-3.43152-6.08226-7.19519l11.28191-66.82367
		c0.50116-2.96838,3.07185-5.14142,6.08226-5.14142h90.99438c3.01041,0,5.58109,2.17303,6.08224,5.14142l11.28192,66.82367
		C292.13974,627.86078,289.23895,631.2923,285.42206,631.2923z"/>
	<rect x="193.72467" y="622.32159" class="st1" width="14.5" height="8.92273"/>
	<path class="st23" d="M291.30591,622.92181l-11.08353-65.64838c-0.50116-2.96838-3.07181-5.14148-6.08224-5.14148h-90.99438
		c-3.01038,0-5.58109,2.1731-6.08226,5.14148l-11.08354,65.64838c-0.00545,3.32275,2.68321,6.14056,6.13327,6.14056h113.05951
		C288.62271,629.06238,291.31137,626.24457,291.30591,622.92181z"/>
	<path class="st3" d="M290.33414,617.16595l-10.11176-59.89252c-0.50116-2.96838-3.07181-5.14148-6.08224-5.14148h-90.99438
		c-3.01038,0-5.58109,2.1731-6.08226,5.14148l-10.11177,59.89252c0.42807,2.86945,2.89775,5.15564,5.98268,5.15564h111.41707
		C287.4364,622.32159,289.9061,620.0354,290.33414,617.16595z"/>
	<polygon class="st1" points="200.47467,552.13196 193.72467,622.32159 208.22467,622.32159 212.22467,552.13196 	"/>
	<polygon class="st1" points="171.651,589.33197 285.63486,589.33197 287.60565,601.005 169.58438,601.005 	"/>
	<path class="st5" d="M269.7988,545.1972c0,11.22327-16.81937,29.7099-22.61661,36.19666c-1.03505,1.15814-2.83765,1.15814-3.8727,0
		c-5.79724-6.48676-22.61662-24.97339-22.61662-36.19666c0-13.56024,10.99274-24.55298,24.55296-24.55298
		S269.7988,531.63696,269.7988,545.1972z"/>
	<circle class="st24" cx="245.24583" cy="547.56342" r="11.84308"/>
	<circle class="st1" cx="245.24583" cy="545.56342" r="11.84308"/>
	<ellipse class="st25" cx="245.24583" cy="582.26245" rx="11.84306" ry="3.68536"/>
	<circle class="st26" cx="245.24583" cy="547.56342" r="9.05896"/>
	<circle class="st3" cx="245.24583" cy="545.56342" r="9.05896"/>
</g>
<g>
	<circle class="st1" cx="457.578" cy="591.57288" r="80"/>
	<circle class="st8" cx="457.578" cy="591.57288" r="55.88452"/>
	<rect x="416.298" y="625.1767" class="st3" width="8.36835" height="12.13513"/>
	<rect x="426.82828" y="625.1767" class="st3" width="8.36835" height="12.25122"/>
	<rect x="437.35855" y="625.1767" class="st3" width="8.36835" height="12.2019"/>
	<rect x="447.88882" y="625.1767" class="st3" width="8.36835" height="16.6936"/>
	<rect x="458.4191" y="625.1767" class="st3" width="8.36835" height="14.08197"/>
	<rect x="468.94937" y="625.1767" class="st3" width="8.36835" height="12.19348"/>
	<rect x="479.47964" y="625.1767" class="st3" width="8.36835" height="11.13715"/>
	<rect x="490.00992" y="625.1767" class="st3" width="8.36835" height="12.24402"/>
	<path class="st0" d="M514.2876,626.16699H400.86841c-4.41827,0-8-3.58173-8-8v-46.06378c0-4.41827,3.58173-8,8-8H514.2876
		c4.41827,0,8,3.58173,8,8v46.06378C522.2876,622.58527,518.70587,626.16699,514.2876,626.16699z"/>
	<path class="st24" d="M522.28766,601.85046v4.63062c0,5.11633-4.14771,9.26392-9.26392,9.26392H402.13239
		c-5.11642,0-9.26395-4.14758-9.26395-9.26392v6.94794c0,5.11633,4.14752,9.26398,9.26395,9.26398h110.89136
		c5.11621,0,9.26392-4.14764,9.26392-9.26398V600.6911V601.85046z"/>
	<rect x="416.298" y="540.35181" class="st3" width="82.55997" height="49.26227"/>
	<rect x="416.298" y="589.63257" class="st24" width="82.55997" height="2.47504"/>
	<rect x="416.298" y="626.15808" class="st27" width="8.37039" height="2.1377"/>
	<rect x="426.82727" y="626.15808" class="st27" width="8.37039" height="2.1377"/>
	<rect x="437.35754" y="626.15808" class="st27" width="8.37039" height="2.1377"/>
	<rect x="447.88782" y="626.15808" class="st27" width="8.37039" height="2.1377"/>
	<rect x="458.41809" y="626.15808" class="st27" width="8.37039" height="2.1377"/>
	<rect x="468.94937" y="626.15808" class="st27" width="8.37039" height="2.1377"/>
	<rect x="479.47864" y="626.15808" class="st27" width="8.37039" height="2.1377"/>
	<rect x="490.00992" y="626.15808" class="st27" width="8.37039" height="2.1377"/>
	<circle class="st24" cx="496.00558" cy="605.86725" r="2.85242"/>
	<circle class="st8" cx="496.00558" cy="603.68359" r="2.85242"/>
	<circle class="st24" cx="483.84665" cy="605.86725" r="2.85242"/>
	<circle class="st8" cx="483.84665" cy="603.68359" r="2.85242"/>
</g>
<g>
	<circle class="st15" cx="231.4877" cy="914.64575" r="80"/>
	<circle class="st1" cx="231.4877" cy="914.64575" r="55.88452"/>
	<path class="st3" d="M283.22089,874.91254c0-6.62738-5.37256-12-12-12h-79.46631c-6.62744,0-12,5.37262-12,12v79.46637
		c0,6.62744,5.37256,12,12,12h67.98438l23.48193-23.48187V874.91254z"/>
	<path class="st28" d="M283.21893,942.89575h-11.47998c-6.63,0-12,5.37012-12,12v11.4801L283.21893,942.89575z"/>
	<path class="st0" d="M283.22089,890.52441v-15.61188c0-6.62738-5.37256-12-12-12h-79.46631c-6.62744,0-12,5.37262-12,12v15.61188
		H283.22089z"/>
	<path class="st11" d="M215.27628,914.18707c-1.00812,0.71844-2.07738,1.80841-3.20869,3.27124l-3.60272-2.81561
		c0.68932-0.96582,1.39369-1.83148,2.11217-2.5979c0.71753-0.76599,1.49713-1.40637,2.33881-1.92126
		c0.84167-0.51532,1.76704-0.91217,2.77423-1.19153c1.00812-0.27789,2.16013-0.41754,3.4579-0.41754
		c1.43507,0,2.74695,0.20691,3.93375,0.62115c1.1868,0.41382,2.19493,1.00769,3.02344,1.78021
		c0.82756,0.7735,1.46986,1.69135,1.92502,2.75403c0.45517,1.06262,0.68369,2.24286,0.68369,3.54016
		c0,1.15955-0.15234,2.19446-0.4561,3.10571c-0.30376,0.91083-0.76549,1.7948-1.38712,2.65009
		c-0.62067,0.85577-1.40779,1.72565-2.36043,2.6087c-0.95171,0.88403-2.06328,1.84979-3.33284,2.89838l-5.96317,4.96918h13.78931
		v4.47211h-20.95244v-4.00995l9.97873-8.47449c0.99402-0.82715,1.83569-1.57758,2.52596-2.25323
		c0.69026-0.67474,1.24887-1.31519,1.6777-1.92224c0.42696-0.60608,0.73822-1.19855,0.93102-1.77692
		c0.19278-0.5788,0.28964-1.19904,0.28964-1.86108c0-1.43225-0.44858-2.54193-1.34573-3.32764
		c-0.89716-0.78528-2.00778-1.17786-3.33282-1.17786S216.28346,913.46954,215.27628,914.18707z"/>
	<path class="st11" d="M241.19716,914.18707c-1.00812,0.71844-2.07736,1.80841-3.20869,3.27124l-3.60272-2.81561
		c0.68933-0.96582,1.39369-1.83148,2.11217-2.5979c0.71754-0.76599,1.49715-1.40637,2.33882-1.92126
		c0.84166-0.51532,1.76703-0.91217,2.77422-1.19153c1.00812-0.27789,2.16013-0.41754,3.4579-0.41754
		c1.43507,0,2.74695,0.20691,3.93376,0.62115c1.1868,0.41382,2.19492,1.00769,3.02342,1.78021
		c0.82758,0.7735,1.46988,1.69135,1.92503,2.75403c0.45515,1.06262,0.68369,2.24286,0.68369,3.54016
		c0,1.15955-0.15236,2.19446-0.4561,3.10571c-0.30376,0.91083-0.7655,1.7948-1.38712,2.65009
		c-0.62068,0.85577-1.40781,1.72565-2.36044,2.6087c-0.95169,0.88403-2.06326,1.84979-3.33282,2.89838l-5.96317,4.96918h13.78929
		v4.47211h-20.95244v-4.00995l9.97874-8.47449c0.99402-0.82715,1.83569-1.57758,2.52596-2.25323
		c0.69026-0.67474,1.24887-1.31519,1.67769-1.92224c0.42696-0.60608,0.73824-1.19855,0.93102-1.77692
		c0.19278-0.5788,0.28964-1.19904,0.28964-1.86108c0-1.43225-0.44856-2.54193-1.34572-3.32764
		c-0.89716-0.78528-2.0078-1.17786-3.33284-1.17786S242.20435,913.46954,241.19716,914.18707z"/>
	<circle class="st24" cx="196.30553" cy="879.64575" r="3.66669"/>
	<circle class="st8" cx="196.30553" cy="877.64575" r="3.66669"/>
	<circle class="st24" cx="266.66989" cy="879.64575" r="3.66669"/>
	<circle class="st8" cx="266.66989" cy="877.64575" r="3.66669"/>
	<rect x="179.75458" y="890.52441" class="st27" width="103.46436" height="2.94452"/>
	<path class="st23" d="M259.73895,964.37585v-7.99695h-67.98438c-6.62744,0-12-5.37256-12-12v8c0,6.62744,5.37256,12,12,12h67.98438
		"/>
</g>
<g>
	<circle class="st8" cx="910.40015" cy="591.59454" r="80"/>
	<circle class="st5" cx="910.40015" cy="591.59454" r="55.88452"/>
	<circle class="st3" cx="946.76068" cy="604.61133" r="2.8634"/>
	<path class="st29" d="M873.23657,643.02039c-3.34094,3.34094-21.29095,9.19238-21.29095,9.19238s5.8515-17.95001,9.19238-21.29089
		c3.34094-3.34094,8.75763-3.34094,12.09857,0C876.57745,634.26276,876.57745,639.67944,873.23657,643.02039z"/>
	<path class="st8" d="M872.83905,636.95074c-1.55505,1.55511-12.37457,6.74323-12.37457,6.74323s5.18811-10.81952,6.74316-12.37463
		c1.55505-1.55505,4.07635-1.55505,5.63141,0C874.3941,632.87445,874.3941,635.39569,872.83905,636.95074z"/>
	<path class="st11" d="M880.52405,638.50256c-1.70459,1.70453-5.70764-0.9491-9.81335-5.05487
		c-4.10571-4.10571-6.75934-8.10876-5.05481-9.81329c1.70453-1.70459,9.2431-2.58643,13.34888,1.51929
		C883.11047,629.2594,882.22858,636.79797,880.52405,638.50256z"/>
	<path class="st0" d="M856.45538,621.68909c-2.52417-2.40729,6.3103-18.14008,10.31982-16.96698
		c4.00946,1.17303,10.92816,5.85626,8.11475,7.35791C872.07648,613.58173,858.97949,624.09637,856.45538,621.68909z"/>
	<path class="st0" d="M882.46936,647.70306c2.40729,2.52411,18.14001-6.31036,16.96698-10.31982
		c-1.1731-4.00952-5.85626-10.92822-7.35797-8.11475C890.57666,632.08191,880.06207,645.17889,882.46936,647.70306z"/>
	<path class="st3" d="M923.30664,553.84467c-12.5415,7.40186-25.98358,17.74707-36.5592,28.32263
		c-23.87854,23.87854-21.26837,37.04761-11.53619,46.77985c9.7323,9.7323,22.90143,12.34241,46.77997-11.53613
		c10.57556-10.57556,20.92072-24.01776,28.32263-36.55914L923.30664,553.84467z"/>
	<path class="st0" d="M935.21149,568.9469c4.76367,4.76367,9.88452,8.74408,15.10236,11.90497
		c9.31085-15.77582,13.96283-30.1261,8.54083-35.5481c-5.42194-5.42194-19.77216-0.7699-35.54803,8.54089
		C926.46753,559.0625,930.44794,564.18335,935.21149,568.9469z"/>
	<path class="st25" d="M924.75012,607.09485c-23.15601,23.23682-38.82977,17.75208-48.24219,8.25604
		c-2.55371-2.57635-4.59277-5.40289-5.75824-8.61456c-2.83057,9.14929-0.70135,15.79089,4.75824,21.29895
		c9.41241,9.49603,23.14856,12.04279,46.24219-11.25604c10.22791-10.31885,20.23297-23.43469,27.3916-35.67157
		c8.29083-14.17224,13.75507-28.15948,10.31958-34.26001C961.16229,558.59052,946.90717,584.86035,924.75012,607.09485z"/>
	<circle class="st25" cx="909.75854" cy="594.39984" r="12.99182"/>
	<circle class="st11" cx="909.75854" cy="594.39984" r="9.88867"/>
	<path class="st13" d="M916.75098,597.39221c-3.86182,3.86176-10.12305,3.86176-13.98474,0
		c-1.41919-1.41919-2.31201-3.16327-2.68811-4.99237c-0.64722,3.14807,0.24561,6.5498,2.68811,8.99237
		c3.86169,3.86176,10.12292,3.86176,13.98474,0c2.4425-2.44257,3.33533-5.8443,2.68799-8.99237
		C919.06299,594.22894,918.17017,595.97302,916.75098,597.39221z"/>
	<ellipse class="st30" cx="909.75854" cy="588.24945" rx="4.24506" ry="2.34204"/>
	<circle class="st25" cx="920.93933" cy="583.21918" r="1.37115"/>
	<circle class="st25" cx="905.6662" cy="579.12671" r="1.37115"/>
	<circle class="st25" cx="894.48547" cy="590.30737" r="1.37115"/>
	<circle class="st25" cx="898.57782" cy="605.58051" r="1.37115"/>
	<circle class="st25" cx="913.85095" cy="609.67297" r="1.37115"/>
	<circle class="st25" cx="925.03168" cy="598.49231" r="1.37115"/>
	<path class="st0" d="M882.3421,627.59271c-3.65045,3.65045-12.53601,9.16876-13.7406,7.96417
		c-1.20459-1.20453,4.31372-10.09009,7.96423-13.7406c3.65045-3.65045,6.87915-3.5119,8.08374-2.30731
		C885.85406,620.7135,885.99255,623.9422,882.3421,627.59271z"/>
	<path class="st30" d="M953.03485,545.31c1.10712,1.77008-8.64282,5.73706-15.60919,10.09393s-12.3689,7.99231-13.84924,6.52008
		c-3.67883-3.65863-0.12622-4.57336,6.84021-8.9303C937.383,548.63684,951.9278,543.53986,953.03485,545.31z"/>
	<circle class="st3" cx="887.80573" cy="539.99615" r="3.67975"/>
	<circle class="st3" cx="910.40015" cy="546.16113" r="2.05548"/>
	<circle class="st3" cx="865.77704" cy="572.96411" r="2.05548"/>
</g>
<g>
	<circle class="st0" cx="1135.84912" cy="591.89441" r="80"/>
	<circle class="st8" cx="1135.84912" cy="591.89441" r="55.88452"/>
	<rect x="1087.10925" y="541.51129" class="st3" width="72.94788" height="100.76624"/>
	<rect x="1096.49609" y="565.7309" class="st23" width="54.17444" height="2.4425"/>
	<rect x="1096.49609" y="575.36157" class="st23" width="54.17444" height="2.4425"/>
	<rect x="1096.49609" y="584.99225" class="st23" width="54.17444" height="2.4425"/>
	<rect x="1096.49609" y="594.62292" class="st23" width="54.17444" height="2.4425"/>
	<rect x="1096.49609" y="604.2536" class="st23" width="34.17444" height="2.4425"/>
	
		<rect x="1178.203" y="597.66913" transform="matrix(-0.70711 0.70711 -0.70711 -0.70711 2439.84033 192.96352)" class="st5" width="3.50636" height="8.24021"/>
	<circle class="st31" cx="1158.6571" cy="580.49786" r="20.62396"/>
	<path class="st32" d="M1158.6571,593.84399c-9.87305,0-18.02087-7.29333-19.40747-16.78168
		c-0.1366,0.935-0.23096,1.88373-0.23096,2.85663c0,10.84595,8.79248,19.63831,19.63843,19.63831
		c10.84583,0,19.63831-8.79236,19.63831-19.63831c0-0.9729-0.09424-1.92163-0.23096-2.85663
		C1176.67786,586.55066,1168.53003,593.84399,1158.6571,593.84399z"/>
	<ellipse class="st30" cx="1158.6571" cy="567.84058" rx="9.65271" ry="5.02545"/>
	<path class="st3" d="M1198.88159,614.19299c8.10779,8.10785,6.82239,9.74573,5.01929,11.54877
		c-1.80298,1.80304-3.44092,3.0885-11.54871-5.01935c-8.10791-8.10791-14.5061-14.85516-11.41589-17.94531
		C1184.02637,599.68695,1190.77368,606.08514,1198.88159,614.19299z"/>
	<path class="st5" d="M1138.22729,560.06805c-11.28308,11.28308-11.28308,29.57654,0,40.85956
		c11.28308,11.28308,29.57654,11.28308,40.8595,0c11.28308-11.28308,11.28308-29.57642,0-40.8595
		C1167.80371,548.7851,1149.51038,548.78497,1138.22729,560.06805z M1174.36194,596.2027
		c-8.67358,8.67358-22.73621,8.67358-31.40979,0c-8.67358-8.67352-8.67346-22.73621,0-31.40973
		c8.67358-8.67352,22.73621-8.67358,31.40979-0.00006C1183.03552,573.46649,1183.03552,587.52917,1174.36194,596.2027z"/>
	<path class="st8" d="M1174.36194,561.79285c-8.67346-8.67352-22.73621-8.67346-31.40979,0.00006
		c-4.59143,4.59149-6.72705,10.6922-6.4574,16.7052c0.23962-5.34601,2.37524-10.62299,6.4574-14.7052
		c8.67358-8.67352,22.73633-8.67358,31.40979-0.00006c4.08215,4.08215,6.21765,9.35895,6.4574,14.7049
		C1181.08887,572.4848,1178.95337,566.38428,1174.36194,561.79285z"/>
	<path class="st8" d="M1179.08691,597.92755c-11.2832,11.28308-29.57666,11.28308-40.85962,0
		c-5.38721-5.38708-8.19556-12.37244-8.43848-19.42975c-0.26587,7.72382,2.54248,15.53381,8.43848,21.42975
		c11.28296,11.28308,29.57642,11.28308,40.85962,0c5.89587-5.89594,8.70422-13.70593,8.43835-21.42975
		C1187.28235,585.55511,1184.474,592.54047,1179.08691,597.92755z"/>
</g>
<g>
	<circle class="st0" cx="457.57568" cy="914.75616" r="80"/>
	<circle class="st8" cx="457.57568" cy="914.75616" r="55.88452"/>
	<path class="st3" d="M518.1347,960.98322H397.01666c-2.20914,0-4-1.79089-4-4v-84.45416c0-2.20911,1.79086-4,4-4H518.1347
		c2.20917,0,4,1.79089,4,4v84.45416C522.1347,959.19232,520.34387,960.98322,518.1347,960.98322z"/>
	<path class="st33" d="M522.138,947.98419v7c0,2.20996-1.78998,4-4,4H397.01797c-2.21002,0-4-1.79004-4-4v-7
		c0,2.20996,1.78998,4,4,4H518.138C520.34802,951.98419,522.138,950.19415,522.138,947.98419z"/>
	<path class="st3" d="M522.138,872.52417v5.89001H393.01797v-5.89001c0-2.20001,1.78998-4,4-4H518.138
		C520.34802,868.52417,522.138,870.32416,522.138,872.52417z"/>
	<rect x="403.01797" y="934.41418" class="st1" width="36.23666" height="26.49609"/>
	<circle class="st0" cx="401.69116" cy="873.46918" r="1.69501"/>
	<circle class="st8" cx="407.56616" cy="873.46918" r="1.69501"/>
	<circle class="st1" cx="413.44116" cy="873.46918" r="1.69501"/>
	<line class="st34" x1="393.01797" y1="878.41418" x2="522.1347" y2="878.41418"/>
	<rect x="447.46298" y="888.41418" class="st35" width="18.625" height="2.75"/>
	<rect x="447.46298" y="898.41418" class="st35" width="64.62503" height="2.75"/>
	<rect x="447.46298" y="908.41418" class="st35" width="64.62503" height="2.75"/>
	<rect x="447.46298" y="934.41418" class="st35" width="18.625" height="2.75"/>
	<rect x="447.46298" y="944.41418" class="st35" width="64.62503" height="2.75"/>
	<rect x="447.46298" y="954.41418" class="st35" width="64.62503" height="2.75"/>
	<rect x="403.01797" y="888.41418" class="st5" width="36.23666" height="36.23669"/>
	<rect x="403.01797" y="921.56018" class="st6" width="36.23666" height="3.0907"/>
	<path class="st8" d="M478.58798,918.58087h-14.33331c-1.65686,0-3,1.34314-3,3v0.07001c0,1.65686,1.34314,3,3,3h14.33331
		c1.65686,0,3-1.34314,3-3v-0.07001C481.58798,919.92401,480.24484,918.58087,478.58798,918.58087z"/>
	<path class="st0" d="M508.58798,918.58087h-14.33331c-1.65686,0-3,1.34314-3,3v0.07001c0,1.65686,1.34314,3,3,3h14.33331
		c1.65686,0,3-1.34314,3-3v-0.07001C511.58798,919.92401,510.24484,918.58087,508.58798,918.58087z"/>
</g>
<g>
	<circle class="st5" cx="683.7392" cy="591.8501" r="80"/>
	<circle class="st1" cx="683.7392" cy="591.8501" r="55.88452"/>
	<path class="st3" d="M731.5155,655.2439h-95.55261c-1.65686,0-3-1.34314-3-3V531.4563c0-1.65686,1.34314-3,3-3h95.55261
		c1.65686,0,3,1.34314,3,3v120.7876C734.5155,653.90076,733.17236,655.2439,731.5155,655.2439z"/>
	<path class="st4" d="M734.51117,645.24817v5c0,1.65002-1.33997,3-3,3h-95.54999c-1.65997,0-3-1.34998-3-3v-5
		c0,1.65002,1.34003,3,3,3h95.54999C733.1712,648.24817,734.51117,646.89819,734.51117,645.24817z"/>
	<rect x="674.81262" y="536.67487" class="st35" width="17.84717" height="2.75"/>
	<rect x="666.92889" y="562.98889" class="st1" width="3.12091" height="6.4989"/>
	<rect x="682.10779" y="552.60657" class="st1" width="3.12091" height="16.88123"/>
	<rect x="697.28674" y="556.60657" class="st1" width="3.12091" height="12.88123"/>
	<rect x="651.74994" y="552.60657" class="st1" width="3.12091" height="16.88123"/>
	<polyline class="st36" points="653.31036,552.60657 668.48932,562.98889 683.66827,552.60657 698.84723,556.60657 
		714.16803,548.60657 	"/>
	<circle class="st4" cx="653.31036" cy="553.60657" r="3.19891"/>
	<circle class="st8" cx="653.31036" cy="552.60657" r="3.19891"/>
	<circle class="st1" cx="653.31036" cy="552.60657" r="1.96875"/>
	<rect x="712.60754" y="548.60657" class="st1" width="3.12091" height="20.88123"/>
	<line class="st34" x1="715.72845" y1="569.48785" x2="651.74994" y2="569.48785"/>
	<line class="st34" x1="729.65692" y1="575.17487" x2="637.81549" y2="575.17487"/>
	<line class="st34" x1="729.65692" y1="610.67487" x2="637.81549" y2="610.67487"/>
	<polyline class="st34" points="715.72845,589.00952 718.56909,591.8501 715.72845,594.69073 	"/>
	<polyline class="st34" points="651.74994,589.00952 648.9093,591.8501 651.74994,594.69073 	"/>
	<path class="st5" d="M665.67926,629.82629c0-5.00653-4.05859-9.06512-9.06506-9.06512c-5.00653,0-9.06512,4.05859-9.06512,9.06512
		c0,5.00647,4.05859,9.06506,9.06512,9.06506v-9.06506H665.67926z"/>
	<path class="st8" d="M666.50214,629.00818c0,5.90509-4.79492,10.70001-10.71185,10.70001v-10.70001H666.50214z"/>
	<path class="st15" d="M690.14764,623.41486l-6.41144,6.41144v-9.065c-5.005,0.00159-9.06213,4.05951-9.06213,9.065
		c0,5.00647,4.05859,9.06506,9.06512,9.06506c5.00647,0,9.06506-4.05859,9.06506-9.06506
		C692.80426,627.32227,691.789,625.05542,690.14764,623.41486z"/>
	<path class="st1" d="M689.23456,623.52362l-4.90997,4.90997v-6.94751C686.23956,621.48608,687.97833,622.26733,689.23456,623.52362
		z"/>
	<path class="st0" d="M701.79907,629.82629c0,5.00647,4.05859,9.06506,9.06512,9.06506v-18.13019
		C705.85767,620.76117,701.79907,624.81976,701.79907,629.82629z"/>
	<path class="st8" d="M719.93121,629.82819c0,5-4.06,9.06-9.07001,9.06v-18.13
		C715.87122,620.75818,719.93121,624.81818,719.93121,629.82819z"/>
	<path class="st8" d="M671.65704,601.73279h-9.83569c-1.65686,0-3-1.3432-3-3v-11.44922c0-1.6568,1.34314-3,3-3h9.83569
		c1.65686,0,3,1.3432,3,3v11.44922C674.65704,600.38959,673.3139,601.73279,671.65704,601.73279z"/>
	<path class="st37" d="M674.66119,597.72815v1c0,1.66003-1.34998,3-3,3h-9.84003c-1.65997,0-3-1.33997-3-3v-1
		c0,1.66003,1.34003,3,3,3h9.84003C673.31122,600.72815,674.66119,599.38818,674.66119,597.72815z"/>
	<path class="st8" d="M695.82135,601.73279h9.83569c1.65686,0,3-1.3432,3-3v-11.44922c0-1.6568-1.34314-3-3-3h-9.83569
		c-1.65686,0-3,1.3432-3,3v11.44922C692.82135,600.38959,694.16449,601.73279,695.82135,601.73279z"/>
	<path class="st37" d="M692.8172,597.72815v1c0,1.66003,1.34998,3,3,3h9.84003c1.65997,0,3-1.33997,3-3v-1c0,1.66003-1.34003,3-3,3
		h-9.84003C694.16718,600.72815,692.8172,599.38818,692.8172,597.72815z"/>
	<path class="st0" d="M691.48621,604.8501h-15.49402c-1.65686,0-3-1.34314-3-3v-17.68384c0-1.65686,1.34314-3,3-3h15.49402
		c1.65686,0,3,1.34314,3,3v17.68384C694.48621,603.50696,693.14307,604.8501,691.48621,604.8501z"/>
	<path class="st29" d="M694.4812,600.84814v1c0,1.66003-1.34003,3-3,3h-15.48999c-1.66003,0-3-1.33997-3-3v-1
		c0,1.66003,1.33997,3,3,3h15.48999C693.14117,603.84814,694.4812,602.50818,694.4812,600.84814z"/>
	<circle class="st4" cx="668.48932" cy="564.00446" r="3.19891"/>
	<circle class="st8" cx="668.48932" cy="563.00446" r="3.19891"/>
	<circle class="st1" cx="668.48932" cy="563.00446" r="1.96875"/>
	<circle class="st4" cx="683.7392" cy="553.60657" r="3.19891"/>
	<circle class="st8" cx="683.7392" cy="552.60657" r="3.19891"/>
	<circle class="st1" cx="683.7392" cy="552.60657" r="1.96875"/>
	<circle class="st4" cx="698.84723" cy="557.60657" r="3.19891"/>
	<circle class="st8" cx="698.84723" cy="556.60657" r="3.19891"/>
	<circle class="st1" cx="698.84723" cy="556.60657" r="1.96875"/>
	<circle class="st4" cx="714.16803" cy="549.60657" r="3.19891"/>
	<circle class="st8" cx="714.16803" cy="548.60657" r="3.19891"/>
	<circle class="st1" cx="714.16803" cy="548.60657" r="1.96875"/>
</g>
<g>
	<circle class="st8" cx="683.66827" cy="914.75616" r="80"/>
	<circle class="st5" cx="683.66827" cy="914.75616" r="55.88452"/>
	<path class="st3" d="M723.82355,966.91144H643.513c-6.62744,0-12-5.37256-12-12v-80.31061c0-6.62738,5.37256-12,12-12h80.31055
		c6.62744,0,12,5.37262,12,12v80.31061C735.82355,961.53888,730.45099,966.91144,723.82355,966.91144z"/>
	<circle class="st27" cx="683.66827" cy="916.75616" r="39.32471"/>
	<circle class="st0" cx="683.66827" cy="914.75616" r="39.32471"/>
	<path class="st38" d="M665.01324,905.04596c3.50769-6.7251,10.54517-11.31635,18.65503-11.31635"/>
	<path class="st38" d="M655.01141,904.58063c4.18524-11.78613,15.43542-20.22601,28.65686-20.22601"/>
	<circle class="st3" cx="683.66827" cy="914.75616" r="13.47675"/>
	<circle class="st1" cx="683.66827" cy="914.75616" r="11.82471"/>
	<path class="st39" d="M714.99298,874.71155v33.90527c0,3.53394-1.55774,6.88824-4.25775,9.16827l-7.06854,5.96906"/>
	<path class="st8" d="M708.30463,924.13123l-6.57922,5.31573c-0.85913,0.69421-2.11841,0.56042-2.81256-0.29877l-1.64972-2.04181
		c-0.69421-0.85919-0.56042-2.11841,0.29877-2.81262l6.57922-5.31573c0.85913-0.69415,2.11841-0.56042,2.81256,0.29877
		l1.64972,2.04181C709.29761,922.1778,709.16382,923.43701,708.30463,924.13123z"/>
	<circle class="st27" cx="714.99298" cy="875.71155" r="5.70361"/>
	<circle class="st0" cx="714.99298" cy="874.71155" r="5.70361"/>
	<circle class="st1" cx="683.66827" cy="915.75616" r="2.99005"/>
	<circle class="st3" cx="683.66827" cy="914.75616" r="2.99005"/>
</g>
<g>
	<circle class="st5" cx="909.87933" cy="914.75616" r="80"/>
	<circle class="st1" cx="909.87933" cy="914.75616" r="55.88452"/>
	<path class="st3" d="M965.39581,959.35681h-111.0329c-1.10461,0-2-0.89539-2-2v-85.20135c0-1.10455,0.89539-2,2-2h111.0329
		c1.10455,0,2,0.89545,2,2v85.20135C967.39581,958.46143,966.50037,959.35681,965.39581,959.35681z"/>
	<path class="st19" d="M909.87939,870.15546h-55.51648c-1.10455,0-2,0.89545-2,2v85.20135c0,1.10455,0.89545,2,2,2h55.51648
		V870.15546z"/>
	<path class="st19" d="M965.39575,955.35681H854.36292c-1.10455,0-2-0.89545-2-2v3c0,1.10455,0.89545,2,2,2h111.03284
		c1.10474,0,2-0.89545,2-2v-3C967.39575,954.46136,966.50049,955.35681,965.39575,955.35681z"/>
	<rect x="908.12665" y="870.15546" class="st19" width="3.50537" height="89.20135"/>
	<path class="st27" d="M913.16693,885.30817h-6.5752c-0.85583,0-1.54962-0.69379-1.54962-1.54962l0,0
		c0-0.8559,0.69379-1.54968,1.54962-1.54968h6.5752c0.85583,0,1.54968,0.69379,1.54968,1.54968l0,0
		C914.71661,884.61438,914.02277,885.30817,913.16693,885.30817z"/>
	<path class="st0" d="M913.16693,883.75854h-6.5752c-0.85583,0-1.54962-0.69385-1.54962-1.54968l0,0
		c0-0.85583,0.69379-1.54962,1.54962-1.54962h6.5752c0.85583,0,1.54968,0.69379,1.54968,1.54962l0,0
		C914.71661,883.0647,914.02277,883.75854,913.16693,883.75854z"/>
	<path class="st27" d="M913.16693,906.35211h-6.5752c-0.85583,0-1.54962-0.69379-1.54962-1.54962l0,0
		c0-0.85583,0.69379-1.54962,1.54962-1.54962h6.5752c0.85583,0,1.54968,0.69379,1.54968,1.54962l0,0
		C914.71661,905.65833,914.02277,906.35211,913.16693,906.35211z"/>
	<path class="st0" d="M913.16693,904.80249h-6.5752c-0.85583,0-1.54962-0.69379-1.54962-1.54962l0,0
		c0-0.85583,0.69379-1.54968,1.54962-1.54968h6.5752c0.85583,0,1.54968,0.69385,1.54968,1.54968l0,0
		C914.71661,904.1087,914.02277,904.80249,913.16693,904.80249z"/>
	<path class="st27" d="M913.16693,927.39612h-6.5752c-0.85583,0-1.54962-0.69379-1.54962-1.54968l0,0
		c0-0.85583,0.69379-1.54962,1.54962-1.54962h6.5752c0.85583,0,1.54968,0.69379,1.54968,1.54962l0,0
		C914.71661,926.70233,914.02277,927.39612,913.16693,927.39612z"/>
	<path class="st0" d="M913.16693,925.84644h-6.5752c-0.85583,0-1.54962-0.69379-1.54962-1.54962l0,0
		c0-0.85583,0.69379-1.54962,1.54962-1.54962h6.5752c0.85583,0,1.54968,0.69379,1.54968,1.54962l0,0
		C914.71661,925.15265,914.02277,925.84644,913.16693,925.84644z"/>
	<path class="st27" d="M913.16693,948.44006h-6.5752c-0.85583,0-1.54962-0.69379-1.54962-1.54962l0,0
		c0-0.85583,0.69379-1.54962,1.54962-1.54962h6.5752c0.85583,0,1.54968,0.69379,1.54968,1.54962l0,0
		C914.71661,947.74628,914.02277,948.44006,913.16693,948.44006z"/>
	<path class="st0" d="M913.16693,946.89044h-6.5752c-0.85583,0-1.54962-0.69379-1.54962-1.54962l0,0
		c0-0.8559,0.69379-1.54968,1.54962-1.54968h6.5752c0.85583,0,1.54968,0.69379,1.54968,1.54968l0,0
		C914.71661,946.19666,914.02277,946.89044,913.16693,946.89044z"/>
	<rect x="861.56281" y="881.22693" class="st19" width="39.11658" height="1.53156"/>
	<rect x="861.56281" y="902.48706" class="st19" width="39.11658" height="1.53156"/>
	<rect x="861.56281" y="923.74719" class="st19" width="39.11658" height="1.53156"/>
	<rect x="861.56281" y="945.00732" class="st19" width="39.11658" height="1.53156"/>
	<rect x="919.07928" y="881.22693" class="st19" width="39.11658" height="1.53156"/>
	<rect x="919.07928" y="902.48706" class="st19" width="39.11658" height="1.53156"/>
	<rect x="919.07928" y="923.74719" class="st19" width="39.11658" height="1.53156"/>
	<rect x="919.07928" y="945.00732" class="st19" width="39.11658" height="1.53156"/>
	<rect x="919.07928" y="895.83148" class="st1" width="34.11658" height="2.3399"/>
	<rect x="919.07928" y="887.89618" class="st1" width="39.11658" height="2.3399"/>
	<rect x="919.07928" y="916.44342" class="st15" width="34.11658" height="2.3399"/>
	<rect x="919.07928" y="908.50812" class="st15" width="39.11658" height="2.3399"/>
	
		<rect x="969.93256" y="891.23785" transform="matrix(-0.70711 -0.70711 0.70711 -0.70711 1031.65442 2213.64502)" class="st3" width="8.71104" height="3.84407"/>
	
		<rect x="948.39874" y="885.24017" transform="matrix(-0.70711 -0.70711 0.70711 -0.70711 979.66724 2235.17871)" class="st8" width="8.71104" height="58.90676"/>
	
		<rect x="951.84625" y="886.24017" transform="matrix(-0.70711 -0.70711 0.70711 -0.70711 980.66724 2237.59277)" class="st27" width="3.81606" height="58.90676"/>
	<path class="st11" d="M926.14349,940.02051l2.70422-7.58612l6.15961,6.15961l-7.58612,2.70422
		C926.62695,941.58136,925.86035,940.81476,926.14349,940.02051z"/>
	<path class="st8" d="M978.07471,895.52661l-6.15961-6.15961l4.9621-4.9621c1.17157-1.17157,3.07104-1.17157,4.24261,0
		l1.91699,1.91699c1.17157,1.17157,1.17157,3.07104,0,4.24261L978.07471,895.52661z"/>
	
		<rect x="963.65363" y="891.34271" transform="matrix(-0.70711 -0.70711 0.70711 -0.70711 1009.40649 2222.86035)" class="st11" width="2.83809" height="22.06504"/>
	
		<rect x="971.38043" y="889.39429" transform="matrix(-0.70711 -0.70711 0.70711 -0.70711 1036.41992 2211.6709)" class="st11" width="9.76323" height="3.58321"/>
	<circle class="st0" cx="865.78625" cy="892.15387" r="4.01398"/>
	<circle class="st8" cx="871.12109" cy="892.15387" r="4.01398"/>
	<circle class="st5" cx="876.45593" cy="892.15387" r="4.01398"/>
</g>
<g>
	<circle class="st1" cx="1135.84888" cy="914.77356" r="80"/>
	<circle class="st0" cx="1135.84888" cy="914.77356" r="55.88452"/>
	<path class="st3" d="M1184.99219,906.72357l-4.79395-32.35095c-1.073-7.26001-7.64172-12.40161-14.95605-11.7066l-32.54639,3.12354
		c-3.77014,0.36127-7.21533,2.24628-9.54529,5.22302l-47.74695,61.00049c-4.69531,5.99872-3.63062,14.66754,2.35901,19.35583
		l37.34045,29.22748c5.99866,4.69537,14.6604,3.63971,19.35583-2.35901l47.74695-61.00049
		C1184.53577,914.26013,1185.53809,910.46307,1184.99219,906.72357z M1165.60022,877.625
		c-1.86389-1.45892-2.19202-4.15259-0.73315-6.01648c1.45886-1.86383,4.15247-2.19214,6.01636-0.73322
		s2.19214,4.15253,0.73328,6.01642C1170.15784,878.75555,1167.46411,879.08392,1165.60022,877.625z"/>
	<path class="st1" d="M1125.8927,973.94171l-43.95374-34.40387c-0.86975-0.68085-1.02295-1.93787-0.34216-2.80768l46.4021-59.28235
		c0.68079-0.86981,1.93787-1.02301,2.80762-0.34216l43.95374,34.40387c0.86987,0.68085,1.02307,1.93787,0.34229,2.80768
		l-46.4021,59.28235C1128.01953,974.46936,1126.76257,974.62256,1125.8927,973.94171z"/>
	<path class="st5" d="M1125.96118,970.08972l-40.29932-31.54352c-0.86987-0.68085-1.02307-1.93787-0.34216-2.80768
		l42.61084-54.43872c0.68079-0.86975,1.93774-1.02301,2.80762-0.34216l40.29932,31.54352
		c0.86975,0.68079,1.02295,1.93781,0.34216,2.80762l-42.61084,54.43872
		C1128.08801,970.61731,1126.83093,970.77051,1125.96118,970.08972z"/>
	<path class="st25" d="M1128.52917,966.43567l-39.93701-31.25989c-0.96985-0.75909-1.14075-2.16083-0.38159-3.13074
		l-2.74915,3.51227c-0.75916,0.96991-0.58826,2.37164,0.38159,3.13074l39.93701,31.25989
		c0.96985,0.75909,2.37158,0.58832,3.13074-0.38159l2.74915-3.51221
		C1130.90076,967.02399,1129.49902,967.19476,1128.52917,966.43567z"/>
	<path class="st0" d="M1118.76868,976.35809l-37.34045-29.22748c-5.98975-4.68829-7.05444-13.35712-2.35901-19.35583
		l-2.24927,2.42871c-4.69531,5.99872-3.63062,14.66754,2.35901,19.35583l37.34045,29.22748
		c5.99878,4.69537,14.6604,3.63971,19.35583-2.35901l2.24915-2.42871
		C1133.42908,979.9978,1124.76733,981.05347,1118.76868,976.35809z"/>
	
		<rect x="1097.77551" y="930.66718" transform="matrix(-0.78746 -0.61637 0.61637 -0.78746 1406.01672 2359.38403)" class="st8" width="24.05109" height="13.21348"/>
	
		<rect x="1120.4751" y="940.11279" transform="matrix(-0.78746 -0.61637 0.61637 -0.78746 1421.76477 2383.70557)" class="st8" width="2.78675" height="13.21348"/>
	
		<rect x="1129.35242" y="946.25861" transform="matrix(-0.78746 -0.61637 0.61637 -0.78746 1432.01135 2399.53052)" class="st8" width="0.7356" height="13.21348"/>
	
		<rect x="1098.17871" y="921.85791" transform="matrix(-0.78746 -0.61637 0.61637 -0.78746 1391.32947 2336.70093)" class="st8" width="0.7356" height="13.21348"/>
	
		<rect x="1131.16504" y="948.0343" transform="matrix(-0.78746 -0.61637 0.61637 -0.78746 1434.9718 2404.10278)" class="st8" width="1.64747" height="13.21348"/>
	
		<rect x="1123.73621" y="943.41138" transform="matrix(-0.78746 -0.61637 0.61637 -0.78746 1427.26428 2392.19922)" class="st8" width="4.69288" height="13.21348"/>
	<path class="st5" d="M1182.9259,856.68829l-1.16577-0.91248c-0.43494-0.34039-1.06335-0.26379-1.40381,0.17108l-11.86401,15.15723
		c-0.34033,0.43488-0.26379,1.06342,0.17114,1.40381l1.16577,0.91248c0.43494,0.34039,1.06335,0.26379,1.40381-0.17108
		l11.86401-15.15723C1183.43738,857.65723,1183.36084,857.02869,1182.9259,856.68829z"/>
	<path class="st25" d="M1172.7384,871.32037l-1.4165,1.80957c-0.3894,0.49762-1.1062,0.5932-1.61292,0.19659l-0.93201-0.72949
		c-0.49768-0.38953-0.58606-1.11536-0.19653-1.61298l1.41638-1.80957c-0.38953,0.49762-0.30115,1.22345,0.19653,1.61298
		l0.93201,0.72949C1171.63208,871.91357,1172.34888,871.81799,1172.7384,871.32037z"/>
</g>
<g>
	<circle class="st15" cx="1361.302" cy="592.22034" r="80"/>
	<circle class="st8" cx="1361.302" cy="592.22034" r="55.88452"/>
	<path class="st3" d="M1401.45728,644.37561h-80.31055c-6.62744,0-12-5.37262-12-12V552.065c0-6.62738,5.37256-12,12-12h80.31055
		c6.62744,0,12,5.37262,12,12v80.31061C1413.45728,639.00299,1408.08472,644.37561,1401.45728,644.37561z"/>
	<polygon class="st35" points="1366.52197,560.00305 1356.07312,560.00305 1361.30322,546.49908 	"/>
	<circle class="st35" cx="1361.30188" cy="592.22028" r="34.54663"/>
	<polygon class="st35" points="1343.45129,567.46655 1336.54236,574.37543 1331.83679,562.75342 	"/>
	<polygon class="st35" points="1386.05566,610.07098 1379.14685,616.97992 1390.7688,621.68542 	"/>
	<polygon class="st35" points="1343.45129,616.97406 1336.54236,610.06519 1331.83679,621.68719 	"/>
	<polygon class="st35" points="1386.05566,574.36963 1379.14685,567.46069 1390.7688,562.75519 	"/>
	<polygon class="st35" points="1366.52197,624.43756 1356.07312,624.43756 1361.30322,637.94153 	"/>
	<polygon class="st35" points="1329.08472,597.44037 1329.08472,586.99139 1315.58069,592.22162 	"/>
	<polygon class="st35" points="1393.51929,597.44037 1393.51929,586.99139 1407.02319,592.22162 	"/>
	<circle class="st40" cx="1361.302" cy="594.22028" r="29.54718"/>
	<circle class="st5" cx="1361.302" cy="592.22028" r="29.54718"/>
	<polygon class="st0" points="1365.81006,596.34711 1356.78503,587.32208 1388.85132,564.28888 	"/>
	<polyline class="st3" points="1356.78503,587.32208 1333.75183,619.38843 1365.81006,596.34711 	"/>
	<circle class="st9" cx="1360.48242" cy="592.65594" r="3.31683"/>
	<circle class="st8" cx="1361.30066" cy="591.83771" r="3.31683"/>
</g>
<g>
	<circle class="st5" cx="1361.302" cy="914.75616" r="80"/>
	<circle class="st0" cx="1361.302" cy="914.75616" r="55.88452"/>
	<path class="st3" d="M1384.7489,974.64069h-46.89392c-3.86597,0-7-3.13397-7-7v-105.7691c0-3.86597,3.13403-7,7-7h46.89392
		c3.86597,0,7,3.13403,7,7v105.7691C1391.7489,971.50671,1388.61487,974.64069,1384.7489,974.64069z"/>
	<path class="st31" d="M1384.54065,973.07208h-46.47742c-3.83154,0-6.93774-4.13397-6.93774-8v2c0,3.86603,3.1062,7,6.93774,7
		h46.47742c3.83167,0,6.93774-3.13397,6.93774-7v-2C1391.47839,968.93811,1388.37231,973.07208,1384.54065,973.07208z"/>
	<rect x="1333.94592" y="868.43945" class="st11" width="54.71216" height="92.63342"/>
	<path class="st31" d="M1384.7489,854.87158h-46.89392c-3.86597,0-7,3.13403-7,7v83.42242l60.89392-60.89392v-22.5285
		C1391.7489,858.00562,1388.61499,854.87158,1384.7489,854.87158z"/>
	<circle class="st41" cx="1361.302" cy="967.64288" r="3.95874"/>
	<circle class="st3" cx="1361.302" cy="967.64288" r="3.1452"/>
	<path class="st41" d="M1365.81079,862.77802h-9.0177c-0.45288,0-0.81995-0.36713-0.81995-0.82001v-0.00989
		c0-0.45288,0.36707-0.82001,0.81995-0.82001h9.0177c0.45288,0,0.81995,0.36713,0.81995,0.82001v0.00989
		C1366.63074,862.41089,1366.26367,862.77802,1365.81079,862.77802z"/>
	<circle class="st41" cx="1352.77356" cy="861.95306" r="1.0509"/>
	<circle class="st23" cx="1361.302" cy="858.15228" r="0.71936"/>
</g>
<g>
	<circle class="st0" cx="1361.302" cy="268.44046" r="80"/>
	<circle class="st8" cx="1361.302" cy="268.44046" r="55.88454"/>
	<path class="st42" d="M1407.31421,314.09851h-92.02454c-4.41833,0-8-3.58173-8-8v-59.28575
		c0-2.53514,1.20154-4.92023,3.23889-6.42899l46.01233-34.07542c2.82849-2.0947,6.69373-2.0947,9.52222,0l46.01233,34.07542
		c2.03723,1.50876,3.23877,3.89384,3.23877,6.42899v59.28575C1415.31421,310.51678,1411.73254,314.09851,1407.31421,314.09851z"/>
	<polygon class="st5" points="1361.30188,280.81274 1400.95471,255.85187 1400.95471,226.85388 1321.64917,226.85388 
		1321.64917,255.85187 	"/>
	<rect x="1326.53503" y="236.85388" class="st43" width="20.99463" height="20.99463"/>
	<rect x="1350.69043" y="236.85388" class="st43" width="20.99463" height="3.46924"/>
	<rect x="1350.69043" y="244.60968" class="st43" width="45.37842" height="12.98254"/>
	<rect x="1326.53503" y="261.60388" class="st43" width="20.39148" height="3.46924"/>
	<rect x="1350.69043" y="261.60388" class="st43" width="45.64612" height="3.46924"/>
	<rect x="1350.69043" y="268.44046" class="st43" width="45.64612" height="3.46924"/>
	<polygon class="st44" points="1321.64917,252.85187 1321.64917,256.85187 1361.30188,281.81274 1400.95471,256.85187 
		1400.95471,252.85187 1361.30188,277.81274 	"/>
	<path class="st3" d="M1415.31421,246.81276v59.28575c0,4.41827-3.58167,8-8,8h-92.02454c-4.41833,0-8-3.58173-8-8v-59.28575
		l54.01233,33.99998L1415.31421,246.81276z"/>
	<line class="st45" x1="1361.30188" y1="280.81274" x2="1413.64795" y2="310.97266"/>
	<line class="st45" x1="1361.30188" y1="280.81274" x2="1308.95593" y2="310.97266"/>
	<path class="st42" d="M1370.14575,282.81274c0,1.13135-1.18701,2.01859-1.59497,3.00238
		c-0.42297,1.01981-0.22681,2.48264-0.99536,3.25119c-0.76855,0.76849-2.23132,0.57236-3.2511,0.99524
		c-0.98389,0.40796-1.87109,1.59497-3.00244,1.59497s-2.01855-1.18704-3.00232-1.595
		c-1.01978-0.42288-2.48267-0.22678-3.25122-0.99533c-0.76843-0.76852-0.57239-2.23135-0.99524-3.25113
		c-0.40796-0.98376-1.59497-1.871-1.59497-3.00232c0-1.13135,1.18701-2.01859,1.59497-3.00238
		c0.42297-1.01981,0.22681-2.48264,0.99536-3.25119c0.76855-0.76849,2.23132-0.57236,3.2511-0.99524
		c0.98389-0.40796,1.87109-1.59497,3.00232-1.59497c1.13135,0,2.01868,1.18704,3.00244,1.595
		c1.01978,0.42288,2.48267,0.22678,3.25122,0.99533c0.76843,0.76852,0.57227,2.23135,0.99524,3.25113
		C1368.95874,280.79419,1370.14575,281.68143,1370.14575,282.81274z"/>
	<path class="st1" d="M1370.14575,281.81274c0,1.13135-1.18701,2.01859-1.59497,3.00238
		c-0.42297,1.01981-0.22681,2.48264-0.99536,3.25119c-0.76855,0.76849-2.23132,0.57236-3.2511,0.99524
		c-0.98389,0.40796-1.87109,1.59497-3.00244,1.59497s-2.01855-1.18704-3.00232-1.595
		c-1.01978-0.42288-2.48267-0.22678-3.25122-0.99533c-0.76843-0.76852-0.57239-2.23135-0.99524-3.25113
		c-0.40796-0.98376-1.59497-1.871-1.59497-3.00232c0-1.13135,1.18701-2.01859,1.59497-3.00238
		c0.42297-1.01981,0.22681-2.48264,0.99536-3.25119c0.76855-0.76849,2.23132-0.57236,3.2511-0.99524
		c0.98389-0.40796,1.87109-1.59497,3.00232-1.59497c1.13135,0,2.01868,1.18704,3.00244,1.595
		c1.01978,0.42288,2.48267,0.22678,3.25122,0.99533c0.76843,0.76852,0.57227,2.23135,0.99524,3.25113
		C1368.95874,279.79419,1370.14575,280.68143,1370.14575,281.81274z"/>
	<circle class="st46" cx="1361.30188" cy="281.81274" r="5.93436"/>
</g>
</svg>
